<svg width="100" height="100" viewBox="0 0 100 100" fill="none" xmlns="http://www.w3.org/2000/svg">
<path d="M50.4464 17.0089C50.4464 17.0089 69.5708 16.1539 79.7098 35.302H48.8191C48.8191 35.302 42.9897 35.1149 38.0096 42.1596C36.5791 45.1165 35.0413 48.1623 36.7668 54.165C34.2813 49.9703 23.5701 31.3922 23.5701 31.3922C23.5701 31.3922 31.1252 17.7659 50.4464 17.0089Z" fill="#EF3F36"/>
<path d="M78.7173 65.6182C78.7173 65.6182 69.8927 82.5487 48.1843 81.7115C50.8666 77.0892 63.6341 55.0645 63.6341 55.0645C63.6341 55.0645 66.7187 50.1306 63.0798 42.3111C61.229 39.5947 59.3425 36.7537 53.2627 35.2396C58.1534 35.1951 79.6561 35.2396 79.6561 35.2396C79.6561 35.2396 87.7118 48.572 78.7173 65.6182Z" fill="#FCD900"/>
<path d="M22.3095 65.7518C22.3095 65.7518 12.0007 49.6764 23.588 31.3655C26.2613 35.9877 39.0289 58.0124 39.0289 58.0124C39.0289 58.0124 41.7827 63.1423 50.3927 63.9083C53.674 63.6678 57.0894 63.4629 61.4525 58.9832C59.0475 63.2225 48.2558 81.7471 48.2558 81.7471C48.2558 81.7471 32.6272 82.0321 22.3095 65.7518Z" fill="#61BC5B"/>
<path d="M48.1754 81.8718L52.5206 63.8103C52.5206 63.8103 57.295 63.4362 61.3005 59.0634C58.815 63.4184 48.1754 81.8718 48.1754 81.8718Z" fill="#5AB055"/>
<path d="M35.8906 49.6407C35.8906 41.6787 42.3728 35.2218 50.3659 35.2218C58.359 35.2218 64.8411 41.6787 64.8411 49.6407C64.8411 57.6028 58.359 64.0597 50.3659 64.0597C42.3728 64.0507 35.8906 57.6028 35.8906 49.6407Z" fill="white"/>
<path d="M38.3136 49.6407C38.3136 43.0146 43.705 37.6354 50.3659 37.6354C57.0179 37.6354 62.4182 43.0057 62.4182 49.6407C62.4182 56.2669 57.0268 61.6461 50.3659 61.6461C43.7139 61.6461 38.3136 56.2669 38.3136 49.6407Z" fill="url(#paint0_linear)"/>
<path d="M79.6472 35.2485L61.7565 40.4764C61.7565 40.4764 59.0564 36.531 53.2538 35.2485C58.2875 35.2218 79.6472 35.2485 79.6472 35.2485Z" fill="#EACA05"/>
<path d="M36.4182 53.506C33.9058 49.1687 23.5701 31.3922 23.5701 31.3922L36.8205 44.4485C36.8205 44.4485 35.4615 47.2361 35.9711 51.226L36.4182 53.506Z" fill="#DF3A32"/>
<defs>
<linearGradient id="paint0_linear" x1="50.3653" y1="37.8048" x2="50.3653" y2="60.9234" gradientUnits="userSpaceOnUse">
<stop stop-color="#86BBE5"/>
<stop offset="1" stop-color="#1072BA"/>
</linearGradient>
</defs>
</svg>