<svg width="100" height="100" viewBox="0 0 100 100" fill="none" xmlns="http://www.w3.org/2000/svg">
<path d="M70.5078 21.4053C68.8828 23.3581 68.1211 27.7324 69.7715 32.1849C71.4219 36.6374 73.9609 35.674 75.5352 40.2045C77.6172 46.1932 76.6523 54.2389 76.6523 54.2389C76.6523 54.2389 79.166 61.6857 80.918 53.7702C84.8027 38.9026 70.5078 25.0766 70.5078 21.4053Z" fill="url(#paint0_radial)"/>
<path d="M50.6016 83.1407C67.334 83.1407 80.8672 69.1845 80.8672 51.9475C80.8672 34.7105 67.3086 20.7804 50.6016 20.7804C33.8945 20.7804 20.3613 34.7366 20.3613 51.9475C20.3359 69.1845 33.8945 83.1407 50.6016 83.1407Z" fill="url(#paint1_radial)"/>
<path d="M73.2754 71.1894C72.6152 71.6581 71.9297 72.0747 71.2188 72.4653C72.1582 71.0332 73.0469 69.5751 73.834 68.0649C74.4688 67.3359 75.0781 66.6328 75.5605 65.8517C75.7891 65.4611 76.0684 65.0185 76.3477 64.4717C78.0488 61.3211 79.9277 56.2438 79.9785 51.0362V50.6457C79.9785 49.3438 79.8516 48.0159 79.5977 46.74C79.623 46.8442 79.623 46.9483 79.6484 47.0525C79.623 46.9744 79.623 46.8962 79.5977 46.8181C79.623 46.9483 79.6484 47.1045 79.6738 47.2347C80.0293 50.2551 79.7754 53.1974 78.5312 55.3845C78.5059 55.4106 78.4805 55.4366 78.4805 55.4887C79.1152 52.1819 79.3438 48.5366 78.6328 44.8913C78.6328 44.8913 78.3535 43.1208 76.2207 37.731C75.002 34.6325 72.8184 32.0808 70.9141 30.2321C69.2383 28.097 67.6895 26.6649 66.8516 25.7536C65.0996 23.8528 64.3633 22.4208 64.0586 21.5094C63.8047 21.3793 60.4277 18.0204 60.1738 17.8902C58.7012 20.2336 54.1055 27.5242 56.2891 34.32C57.2793 37.4185 59.793 40.6211 62.4336 42.4177C62.5605 42.5479 64.0078 44.1623 64.6934 47.8076C65.4043 51.583 65.0234 54.4993 63.5762 58.8476C61.8496 62.6491 57.4316 66.4245 53.293 66.8151C44.457 67.6483 41.207 62.2585 41.207 62.2585C44.3555 63.5604 47.8594 63.274 49.9922 61.946C52.125 60.5921 53.4199 59.5766 54.4863 59.9672C55.5273 60.3577 56.3398 59.2121 55.6035 58.0143C54.4355 56.1657 52.3027 55.2283 50.1953 55.5928C48.0625 55.9574 46.082 57.7019 43.2891 56.0094C43.1113 55.9053 42.9336 55.7751 42.7559 55.6449C42.5781 55.5147 43.3652 55.8272 43.1621 55.697C42.6289 55.3845 41.6387 54.7336 41.4102 54.4993C41.3594 54.4472 41.8418 54.6555 41.791 54.6034C39.1758 52.3902 39.5059 50.88 39.582 49.9427C39.6582 49.1876 40.1152 48.2242 40.9277 47.8336C41.3086 48.0419 41.5625 48.2242 41.5625 48.2242C41.5625 48.2242 41.3848 47.8857 41.3086 47.7034C41.334 47.6774 41.3594 47.7034 41.4102 47.6774C41.7402 47.8336 42.4258 48.2502 42.8066 48.4845C43.2891 48.823 43.4414 49.1355 43.4414 49.1355C43.4414 49.1355 43.5684 49.0574 43.4668 48.771C43.4414 48.6408 43.2891 48.2502 42.8066 47.8596H42.832C43.1113 48.0159 43.3906 48.2242 43.6445 48.4325C43.7715 47.9377 44.0254 47.417 43.9746 46.4796C43.9492 45.8287 43.9492 45.6464 43.8477 45.386C43.7461 45.1777 43.8984 45.0736 44.0762 45.3079C44.0508 45.1257 44 44.9434 43.9238 44.7872V44.7611C44.1523 43.98 48.5703 41.923 48.9004 41.6887C49.4336 41.2981 49.8652 40.8034 50.1953 40.2306C50.4492 39.84 50.627 39.2672 50.6777 38.4079C50.7031 37.783 50.4238 37.3664 45.9297 36.8977C44.7109 36.7676 43.9746 35.8562 43.5684 35.023C43.4922 34.8408 43.416 34.6845 43.3398 34.5023C43.2637 34.32 43.2129 34.1117 43.1621 33.9034C43.8984 31.7423 45.1172 29.9196 46.9453 28.5396C47.0469 28.4355 46.5391 28.5657 46.6406 28.4615C46.7676 28.3574 47.5039 28.0449 47.6563 27.9668C47.834 27.8887 46.9199 27.4721 46.1074 27.5762C45.2949 27.6804 45.1172 27.7845 44.6602 27.9668C44.8379 27.7845 45.4219 27.5242 45.2949 27.5502C44.4062 27.6804 43.3145 28.2272 42.375 28.826C42.375 28.7219 42.4004 28.6177 42.4258 28.5136C41.9941 28.6959 40.9023 29.477 40.5977 30.1279C40.623 29.9977 40.623 29.8676 40.623 29.7374C40.293 30.0238 39.9883 30.3362 39.7344 30.7008L39.582 30.7528C37.043 29.7113 34.7832 29.6332 32.9043 30.1019C32.498 29.6853 32.2949 29.9977 31.3301 27.8627C31.2539 27.7325 31.3809 27.9928 31.3301 27.8627C31.1777 27.446 31.4316 28.4094 31.3301 27.8627C29.7559 29.1645 27.6738 30.6227 26.6582 31.6381C26.6582 31.6902 27.8262 31.2996 26.6582 31.6381C26.252 31.7683 26.2773 32.0027 26.2266 34.2679C26.2012 34.4502 26.2266 34.6325 26.2012 34.7887C25.3887 35.8302 24.8555 36.7155 24.6523 37.1842C23.6113 39.0068 22.4688 41.871 21.377 46.3755C21.8594 45.1517 22.4434 43.98 23.1289 42.8604C22.2148 45.2559 21.3262 49.0313 21.1484 54.8117C21.377 53.614 21.6563 52.4423 22.0117 51.2706C21.7832 56.0876 22.5957 60.8785 24.373 65.331C25.0078 66.9193 26.0488 69.3408 27.8516 71.9966C33.4883 78.0634 41.4102 81.8389 50.1953 81.8389C59.3613 81.8389 67.6133 77.7249 73.2754 71.1894Z" fill="url(#paint2_linear)"/>
<path d="M66.4707 75.5898C77.5664 74.2619 82.4922 62.5449 76.1699 62.3106C70.4824 62.1283 61.2148 76.2147 66.4707 75.5898Z" fill="url(#paint3_radial)"/>
<path d="M76.9824 59.9151C84.625 55.3585 82.6191 45.5162 82.6191 45.5162C82.6191 45.5162 79.6738 49.0313 77.668 54.6294C75.7129 60.1755 72.3867 62.6751 76.9824 59.9151Z" fill="url(#paint4_radial)"/>
<path d="M52.7344 81.4223C63.3984 84.9113 72.5391 76.2928 66.9023 73.4287C61.7734 70.8509 47.6817 79.7819 52.7344 81.4223Z" fill="url(#paint5_radial)"/>
<path d="M77.7957 64.1072C78.0496 63.7426 78.4051 62.5449 78.7098 61.9981C80.5887 58.8736 80.6141 56.4 80.6141 56.3479C81.7566 50.5415 81.6551 48.146 80.9441 43.7717C80.3855 40.2306 77.9226 35.1532 75.7898 32.7317C73.6062 30.206 75.1297 31.0392 73.0223 29.1906C71.1687 27.0815 69.3406 24.9725 68.3758 24.1392C61.2664 18.0464 61.4187 16.7445 61.5711 16.5362C61.5457 16.5623 61.5203 16.5883 61.4695 16.6404C61.3934 16.3019 61.3172 16.0155 61.3172 16.0155C61.3172 16.0155 57.407 19.9732 56.5945 26.6128C56.0613 30.9351 57.6355 35.4657 59.9461 38.3558C61.1394 39.866 62.4852 41.22 63.9578 42.4177C65.6844 44.9694 66.6492 48.12 66.6492 51.5049C66.6492 59.9932 59.9461 66.8411 51.6687 66.8411C50.5516 66.8411 49.409 66.7109 48.3172 66.4506C44.407 65.6955 42.1727 63.6645 41.0301 62.2845C40.3953 61.5034 40.116 60.9306 40.116 60.9306C43.6199 62.2064 47.4793 61.946 49.8406 60.6181C52.202 59.2642 53.6492 58.2747 54.8172 58.6653C55.9598 59.0558 56.8738 57.9102 56.0613 56.7385C55.2488 55.5668 53.1668 53.8743 50.0691 54.343C47.7078 54.7075 45.5242 56.426 42.4266 54.7596C42.2234 54.6555 42.0203 54.5253 41.8426 54.4211C41.6395 54.2909 42.5027 54.6034 42.2996 54.4732C41.6902 54.1608 40.6238 53.5098 40.3445 53.2755C40.2937 53.2234 40.8016 53.4317 40.7762 53.3796C37.8816 51.1925 38.2371 49.7083 38.3133 48.7709C38.3895 48.0158 38.9227 47.0785 39.8113 46.6879C40.243 46.8962 40.4969 47.0785 40.4969 47.0785C40.4969 47.0785 40.3191 46.74 40.2176 46.5577C40.243 46.5317 40.2937 46.5577 40.3191 46.5317C40.6746 46.6879 41.4617 47.0785 41.868 47.3389C42.4012 47.6774 42.5789 47.9898 42.5789 47.9898C42.5789 47.9898 42.7312 47.9117 42.6043 47.6253C42.5535 47.4951 42.4012 47.1045 41.868 46.714H41.8934C42.198 46.8702 42.5027 47.0785 42.782 47.2868C42.9344 46.7921 43.1883 46.2713 43.1375 45.334C43.1121 44.683 43.1121 44.5008 42.9852 44.2664C42.8836 44.0581 43.0359 43.954 43.2391 44.1883C43.2137 44.006 43.1375 43.8498 43.0613 43.6675V43.6415C43.3152 42.8604 48.2156 40.8294 48.5711 40.5951C49.1551 40.2306 49.6375 39.7358 50.0184 39.163C50.2977 38.7725 50.5008 38.1996 50.5516 37.3404C50.5769 36.9498 50.45 36.6634 49.1551 36.3509C48.368 36.1687 47.1746 36.0125 45.2957 35.8302C43.95 35.7 43.1375 34.8147 42.6805 33.9815C42.6043 33.7992 42.5027 33.643 42.4266 33.4868C42.3504 33.3045 42.2742 33.0962 42.2234 32.914C43.0359 30.7268 44.5086 28.8781 46.4129 27.6023C46.5145 27.4981 45.9812 27.6283 46.0828 27.5242C46.2098 27.42 47.0477 27.1075 47.2 27.0294C47.4031 26.9513 46.3875 26.5608 45.4734 26.6389C44.5594 26.743 44.3816 26.8211 43.8738 27.0294C44.077 26.8472 44.7117 26.6128 44.5594 26.6128C43.6453 26.717 42.4266 27.2377 41.3855 27.8366C41.3855 27.7325 41.4109 27.6283 41.4363 27.5242C40.9539 27.7064 39.7605 28.4875 39.4051 29.1385C39.4305 29.0083 39.4305 28.8781 39.4305 28.774C39.075 29.0604 38.7195 29.3728 38.4402 29.7374L38.4148 29.7634C35.5965 28.7219 33.1082 28.6438 31.0262 29.1125C30.5691 28.6958 29.8328 28.0449 28.7918 25.9358C28.7156 25.8057 28.6902 26.1962 28.6395 26.066C28.2332 25.1026 27.9793 23.5143 28.0301 22.4208C28.0301 22.4208 27.1922 22.8113 26.5066 24.4517C26.3797 24.7381 26.3035 24.9204 26.202 25.0766C26.1512 25.1287 26.2781 24.5298 26.2781 24.5819C26.1512 24.7902 25.8465 25.0766 25.7195 25.4672C25.618 25.7536 25.491 25.9098 25.4148 26.2483L25.3895 26.2743C25.3895 26.1702 25.4148 25.8577 25.3895 25.9098C25.0594 26.5868 24.7801 27.2898 24.5516 27.9928C24.1707 29.2426 23.7391 30.9611 23.6629 33.2004C23.6375 33.3566 23.6629 33.5649 23.6375 33.7211C22.7488 34.7626 22.1395 35.6479 21.9109 36.0906C20.7684 37.9132 19.4988 40.7253 18.2801 45.2038C18.8133 43.98 19.4734 42.8083 20.2352 41.7147C19.2195 44.0841 18.2293 47.8336 18.0262 53.5619C18.2801 52.3642 18.5848 51.1925 18.9656 50.0468C18.7879 53.8743 19.2195 58.6392 21.5809 64.003C22.9773 67.1536 26.202 73.5589 34.0984 78.5581C34.0984 78.5581 36.7898 80.6151 41.3855 82.1513C41.7156 82.2815 42.0711 82.4117 42.4266 82.5158C42.325 82.4638 42.198 82.4117 42.0965 82.3857C45.1687 83.323 48.3426 83.8177 51.5672 83.8177C63.5008 83.8177 67.0301 78.8966 67.0301 78.8966L67.0047 78.9226C67.1824 78.7664 67.3348 78.5842 67.4871 78.4279C65.6082 80.2506 61.2918 80.3808 59.6922 80.2506C62.4344 79.4174 64.2371 78.7143 67.741 77.3604C68.1473 77.2042 68.5789 77.0219 69.0105 76.8136L69.1375 76.7355C69.2137 76.6834 69.3152 76.6574 69.3914 76.6053C71.0926 75.7721 72.7176 74.7566 74.1902 73.5328C77.7195 70.6426 78.4812 67.8306 78.8875 65.9819C78.8367 66.1642 78.659 66.5808 78.532 66.8411C77.618 68.82 75.6121 70.0698 73.4285 71.1113C74.4695 69.7053 75.4344 68.2472 76.323 66.737C77.034 66.0079 77.2371 64.8623 77.7957 64.1072Z" fill="url(#paint6_radial)"/>
<path d="M73.5039 71.0072C74.9512 69.3928 76.2207 67.5181 77.2109 65.4091C79.7246 59.9932 83.6094 50.9581 80.5625 41.5585C78.1504 34.1117 74.8242 30.0498 70.6094 26.066C63.7539 19.6087 61.8496 16.7185 61.8496 15C61.8496 15 53.9277 24.0351 57.3555 33.4868C60.7832 42.9385 67.8164 42.574 72.4629 52.4162C77.9473 64.003 68.0449 76.6574 59.8438 80.1985C60.3516 80.0943 78.0488 75.9804 78.9883 65.5913C78.9375 65.7736 78.5313 68.6638 73.5039 71.0072Z" fill="url(#paint7_radial)"/>
<path d="M50.5508 37.3404C50.5762 36.7155 50.2715 36.3249 45.3203 35.8302C43.2891 35.6479 42.502 33.7211 42.2734 32.8879C41.5625 34.8147 41.2578 36.8456 41.4102 39.2932C41.5117 40.9075 42.5781 42.626 43.0605 43.6155C43.0605 43.6155 43.1621 43.4592 43.2129 43.4072C44.1523 42.3917 48.1133 40.8555 48.4941 40.6472C48.9258 40.3868 50.5 39.2151 50.5508 37.3404Z" fill="url(#paint8_linear)"/>
<path d="M28.791 25.9359C28.7148 25.8057 28.6895 26.1962 28.6387 26.066C28.2324 25.1026 27.9785 23.5404 28.0547 22.4208C28.0547 22.4208 27.2168 22.8113 26.5312 24.4517C26.4043 24.7381 26.3281 24.9204 26.2266 25.0766C26.1758 25.1287 26.3027 24.5298 26.3027 24.5819C26.1758 24.7902 25.8711 25.0766 25.7441 25.4411C25.6426 25.7276 25.5156 25.9098 25.4395 26.2743C25.4141 26.3785 25.4648 25.8317 25.4395 25.9098C23.8145 29.1125 23.5098 33.9555 23.6875 33.7472C27.1406 29.9717 31.0762 29.0864 31.0762 29.0864C30.5937 28.774 29.6797 27.8366 28.791 25.9359Z" fill="url(#paint9_linear)"/>
<path d="M41.8418 65.357C37.0938 63.274 31.6855 60.3317 31.8887 53.666C32.168 44.8913 39.8867 46.6098 39.8867 46.6098C39.6074 46.6879 38.8203 47.2607 38.541 47.8596C38.2617 48.6147 37.7285 50.3332 39.3281 52.1298C41.8672 54.9419 34.123 58.7955 46.0566 66.086C46.3613 66.2423 43.2637 65.9819 41.8418 65.357Z" fill="url(#paint10_linear)"/>
<path d="M40.166 60.9826C43.543 62.1804 47.4531 61.9721 49.8145 60.6442C51.3887 59.7328 53.4199 58.3008 54.6387 58.6653C53.5723 58.2226 52.7598 58.0143 51.7695 57.9883C51.5918 57.9883 51.4141 57.9883 51.2363 57.9623C50.8809 57.9623 50.5254 57.9883 50.1699 58.0143C49.5605 58.0664 48.9004 58.457 48.291 58.4049C48.2656 58.4049 48.875 58.1445 48.8242 58.1445C48.4941 58.2226 48.1387 58.2226 47.7832 58.2747C47.5547 58.3008 47.3516 58.3268 47.0977 58.3528C40.0645 58.9517 34.1484 54.4472 34.1484 54.4472C33.6406 56.1657 36.4082 59.6287 40.166 60.9826Z" fill="url(#paint11_linear)"/>
<path d="M73.4785 71.0592C80.5879 63.8989 84.168 55.2283 82.6445 45.4641C82.6445 45.4641 83.2539 50.4634 80.9434 55.5668C82.0606 50.5675 82.1875 44.3705 79.2422 37.9392C75.332 29.3728 68.8828 24.8422 66.4199 22.9675C62.6875 20.1034 61.1387 17.2132 61.1133 16.6143C59.9961 18.9577 56.6191 26.9773 60.7578 33.8773C64.6172 40.3607 70.7109 42.2615 74.9512 48.1981C82.8223 59.16 73.4785 71.0592 73.4785 71.0592Z" fill="url(#paint12_linear)"/>
<path d="M72.4629 52.4423C69.9746 47.1826 66.877 44.8913 63.957 42.4177C64.2871 42.9125 64.3887 43.0687 64.5664 43.4072C67.1562 46.2192 70.9395 53.0932 68.1973 61.7377C62.9922 77.9853 42.2227 70.3302 40.0391 68.1951C40.9277 77.5947 56.2637 82.0993 66.2676 76.0064C71.9297 70.4343 76.5254 61.0608 72.4629 52.4423Z" fill="url(#paint13_linear)"/>
<defs>
<radialGradient id="paint0_radial" cx="0" cy="0" r="1" gradientUnits="userSpaceOnUse" gradientTransform="translate(81.7904 36.2495) rotate(2.31796) scale(23.383 35.3408)">
<stop offset="0.1" stop-color="#FFEA00"/>
<stop offset="0.17" stop-color="#FFDE00"/>
<stop offset="0.28" stop-color="#FFBF00"/>
<stop offset="0.43" stop-color="#FF8E00"/>
<stop offset="0.77" stop-color="#FF272D"/>
<stop offset="0.87" stop-color="#E0255A"/>
<stop offset="0.95" stop-color="#CC2477"/>
<stop offset="1" stop-color="#C42482"/>
</radialGradient>
<radialGradient id="paint1_radial" cx="0" cy="0" r="1" gradientUnits="userSpaceOnUse" gradientTransform="translate(60.5569 25.6432) scale(66.3553 68.0464)">
<stop stop-color="#00CCDA"/>
<stop offset="0.22" stop-color="#0083FF"/>
<stop offset="0.26" stop-color="#007AF9"/>
<stop offset="0.33" stop-color="#005FE7"/>
<stop offset="0.44" stop-color="#2639AD"/>
<stop offset="0.52" stop-color="#401E84"/>
<stop offset="0.57" stop-color="#4A1475"/>
</radialGradient>
<linearGradient id="paint2_linear" x1="54.878" y1="65.9782" x2="41.2122" y2="22.3862" gradientUnits="userSpaceOnUse">
<stop stop-color="#000F43" stop-opacity="0.4"/>
<stop offset="0.48" stop-color="#001962" stop-opacity="0.17"/>
<stop offset="1" stop-color="#002079" stop-opacity="0"/>
</linearGradient>
<radialGradient id="paint3_radial" cx="0" cy="0" r="1" gradientUnits="userSpaceOnUse" gradientTransform="translate(83.8393 60.7787) rotate(5.75964) scale(22.3118 22.8691)">
<stop stop-color="#FFEA00"/>
<stop offset="0.5" stop-color="#FF272D"/>
<stop offset="1" stop-color="#C42482"/>
</radialGradient>
<radialGradient id="paint4_radial" cx="0" cy="0" r="1" gradientUnits="userSpaceOnUse" gradientTransform="translate(83.9242 38.7477) rotate(5.75964) scale(37.2584 38.1891)">
<stop stop-color="#FFE900"/>
<stop offset="0.16" stop-color="#FFAF0E"/>
<stop offset="0.32" stop-color="#FF7A1B"/>
<stop offset="0.47" stop-color="#FF4E26"/>
<stop offset="0.62" stop-color="#FF2C2E"/>
<stop offset="0.76" stop-color="#FF1434"/>
<stop offset="0.89" stop-color="#FF0538"/>
<stop offset="1" stop-color="#FF0039"/>
</radialGradient>
<radialGradient id="paint5_radial" cx="0" cy="0" r="1" gradientUnits="userSpaceOnUse" gradientTransform="translate(85.7878 74.5161) rotate(5.75965) scale(34.1887 35.0427)">
<stop stop-color="#FF272D"/>
<stop offset="0.5" stop-color="#C42482"/>
<stop offset="0.99" stop-color="#620700"/>
</radialGradient>
<radialGradient id="paint6_radial" cx="0" cy="0" r="1" gradientUnits="userSpaceOnUse" gradientTransform="translate(66.7629 42.5497) scale(53.3295 54.6887)">
<stop offset="0.16" stop-color="#FFEA00"/>
<stop offset="0.23" stop-color="#FFDE00"/>
<stop offset="0.37" stop-color="#FFBF00"/>
<stop offset="0.54" stop-color="#FF8E00"/>
<stop offset="0.76" stop-color="#FF272D"/>
<stop offset="0.8" stop-color="#F92433"/>
<stop offset="0.84" stop-color="#E91C45"/>
<stop offset="0.89" stop-color="#CF0E62"/>
<stop offset="0.94" stop-color="#B5007F"/>
</radialGradient>
<radialGradient id="paint7_radial" cx="0" cy="0" r="1" gradientUnits="userSpaceOnUse" gradientTransform="translate(63.7042 17.1868) scale(60.7796 62.3287)">
<stop offset="0.28" stop-color="#FFEA00"/>
<stop offset="0.4" stop-color="#FFDD00"/>
<stop offset="0.63" stop-color="#FFBA00"/>
<stop offset="0.86" stop-color="#FF9100"/>
<stop offset="0.93" stop-color="#FF6711"/>
<stop offset="0.99" stop-color="#FF4A1D"/>
</radialGradient>
<linearGradient id="paint8_linear" x1="28.1297" y1="40.5283" x2="54.338" y2="36.6257" gradientUnits="userSpaceOnUse">
<stop stop-color="#C42482" stop-opacity="0.5"/>
<stop offset="0.47" stop-color="#FF272D" stop-opacity="0.5"/>
<stop offset="0.49" stop-color="#FF2C2C" stop-opacity="0.51"/>
<stop offset="0.68" stop-color="#FF7A1A" stop-opacity="0.72"/>
<stop offset="0.83" stop-color="#FFB20D" stop-opacity="0.87"/>
<stop offset="0.94" stop-color="#FFD605" stop-opacity="0.96"/>
<stop offset="1" stop-color="#FFE302"/>
</linearGradient>
<linearGradient id="paint9_linear" x1="27.9326" y1="33.4884" x2="25.0725" y2="23.4639" gradientUnits="userSpaceOnUse">
<stop stop-color="#891551" stop-opacity="0.6"/>
<stop offset="1" stop-color="#C42482" stop-opacity="0"/>
</linearGradient>
<linearGradient id="paint10_linear" x1="32.9159" y1="47.6272" x2="38.7281" y2="55.5447" gradientUnits="userSpaceOnUse">
<stop offset="0.01" stop-color="#891551" stop-opacity="0.5"/>
<stop offset="0.48" stop-color="#FF272D" stop-opacity="0.5"/>
<stop offset="1" stop-color="#FF272D" stop-opacity="0"/>
</linearGradient>
<linearGradient id="paint11_linear" x1="43.8744" y1="61.6522" x2="44.4152" y2="56.4793" gradientUnits="userSpaceOnUse">
<stop stop-color="#C42482"/>
<stop offset="0.08" stop-color="#C42482" stop-opacity="0.81"/>
<stop offset="0.21" stop-color="#C42482" stop-opacity="0.57"/>
<stop offset="0.33" stop-color="#C42482" stop-opacity="0.36"/>
<stop offset="0.45" stop-color="#C42482" stop-opacity="0.2"/>
<stop offset="0.56" stop-color="#C42482" stop-opacity="0.09"/>
<stop offset="0.67" stop-color="#C42482" stop-opacity="0.02"/>
<stop offset="0.77" stop-color="#C42482" stop-opacity="0"/>
</linearGradient>
<linearGradient id="paint12_linear" x1="60.2985" y1="17.5292" x2="82.0271" y2="64.9093" gradientUnits="userSpaceOnUse">
<stop stop-color="#FFF14F"/>
<stop offset="0.27" stop-color="#FFEE4C"/>
<stop offset="0.45" stop-color="#FFE643"/>
<stop offset="0.61" stop-color="#FFD834"/>
<stop offset="0.76" stop-color="#FFC41E"/>
<stop offset="0.89" stop-color="#FFAB02"/>
<stop offset="0.9" stop-color="#FFA900"/>
<stop offset="0.95" stop-color="#FFA000"/>
<stop offset="1" stop-color="#FF9100"/>
</linearGradient>
<linearGradient id="paint13_linear" x1="64.4364" y1="45.0146" x2="54.1206" y2="72.0251" gradientUnits="userSpaceOnUse">
<stop stop-color="#FF8E00"/>
<stop offset="0.04" stop-color="#FF8E00" stop-opacity="0.86"/>
<stop offset="0.08" stop-color="#FF8E00" stop-opacity="0.73"/>
<stop offset="0.13" stop-color="#FF8E00" stop-opacity="0.63"/>
<stop offset="0.18" stop-color="#FF8E00" stop-opacity="0.56"/>
<stop offset="0.23" stop-color="#FF8E00" stop-opacity="0.51"/>
<stop offset="0.28" stop-color="#FF8E00" stop-opacity="0.5"/>
<stop offset="0.39" stop-color="#FF8E00" stop-opacity="0.48"/>
<stop offset="0.52" stop-color="#FF8E00" stop-opacity="0.42"/>
<stop offset="0.68" stop-color="#FF8E00" stop-opacity="0.31"/>
<stop offset="0.84" stop-color="#FF8E00" stop-opacity="0.17"/>
<stop offset="1" stop-color="#FF8E00" stop-opacity="0"/>
</linearGradient>
</defs>
</svg>
