<svg width="400" height="400" viewBox="0 0 400 400" fill="none" xmlns="http://www.w3.org/2000/svg">
<rect width="400" height="400" rx="30" fill="#1A1A1A"/>
<path d="M133.694 142.654V264H112.446V142.654H133.694ZM116.098 264V244.412H184.324V264H116.098ZM232.312 203.41L191.974 142.654H217.206L231.98 164.566C234.415 168.107 236.684 171.759 238.786 175.522C241 179.174 243.268 183.047 245.592 187.142L273.812 142.654H298.546L258.872 203.244L298.712 264H273.646L260.034 243.914C257.268 239.819 254.778 235.835 252.564 231.962C250.351 228.089 247.972 223.994 245.426 219.678L216.044 264H191.144L232.312 203.41Z" fill="#D6745C"/>
</svg>
