<svg width="100" height="100" viewBox="0 0 100 100" fill="none" xmlns="http://www.w3.org/2000/svg">
<rect width="100" height="100" rx="5" fill="#0D1117"/>
<path d="M71.3439 66.7624H42.8365V16.8215C42.8365 10.8536 38.0571 6 32.1804 6H27.6561C21.7794 6 17 10.8536 17 16.8215V35.9333V79.8812C17 87.1132 22.7937 93 29.9182 93H71.3439C77.2206 93 82 88.1464 82 82.1785V77.5839C82 71.6191 77.2206 66.7624 71.3439 66.7624ZM21.2016 16.8215C21.2016 13.204 24.1 10.2637 27.6592 10.2637H32.1835C35.7457 10.2637 38.641 13.2071 38.641 16.8215V66.6625C32.1158 66.1631 21.2016 63.4319 21.2016 50.7688V35.9333V16.8215ZM77.8015 82.1785C77.8015 85.796 74.9062 88.7363 71.3439 88.7363H29.9213C25.1142 88.7363 21.2016 84.7629 21.2016 79.8812V63.3445C22.1913 64.5306 23.3469 65.5919 24.6716 66.5189C29.8107 70.124 36.2314 70.9605 40.7403 71.0261H71.347C74.9093 71.0261 77.8046 73.9694 77.8046 77.5839V82.1785H77.8015Z" fill="white"/>
</svg>