<svg width="100" height="100" viewBox="0 0 100 100" fill="none" xmlns="http://www.w3.org/2000/svg">
<path d="M62.7045 69.8418H29.8113V12.4386C29.8113 5.57888 24.2966 0 17.5158 0H12.2955C5.5147 0 0 5.57888 0 12.4386V34.4061V84.9209C0 93.2336 6.68503 100 14.9057 100H62.7045C69.4853 100 75 94.4211 75 87.5614V82.2803C75 75.4242 69.4853 69.8418 62.7045 69.8418ZM4.84797 12.4386C4.84797 8.28041 8.19226 4.9008 12.299 4.9008H17.5194C21.6297 4.9008 24.9704 8.284 24.9704 12.4386V69.727C17.4414 69.1529 4.84797 66.0137 4.84797 51.4584V34.4061V12.4386ZM70.1556 87.5614C70.1556 91.7196 66.8148 95.0992 62.7045 95.0992H14.9092C9.36258 95.0992 4.84797 90.5321 4.84797 84.9209V65.9132C5.98992 67.2766 7.32339 68.4964 8.8519 69.5619C14.7815 73.7057 22.19 74.6672 27.3927 74.7426H62.7081C66.8184 74.7426 70.1591 78.1258 70.1591 82.2803V87.5614H70.1556Z" fill="white"/>
</svg>