<svg width="120" height="120" viewBox="0 0 120 120" fill="none" xmlns="http://www.w3.org/2000/svg">
<rect width="120" height="120" rx="5" fill="#0D1117"/>
<path d="M81.3439 76.7624H52.8365V26.8215C52.8365 20.8536 48.0571 16 42.1804 16H37.6561C31.7794 16 27 20.8536 27 26.8215V45.9333V89.8812C27 97.1132 32.7937 103 39.9182 103H81.3439C87.2206 103 92 98.1464 92 92.1785V87.5839C92 81.6191 87.2206 76.7624 81.3439 76.7624ZM31.2016 26.8215C31.2016 23.204 34.1 20.2637 37.6592 20.2637H42.1835C45.7457 20.2637 48.641 23.2071 48.641 26.8215V76.6625C42.1158 76.1631 31.2016 73.4319 31.2016 60.7688V45.9333V26.8215ZM87.8015 92.1785C87.8015 95.796 84.9062 98.7363 81.3439 98.7363H39.9213C35.1142 98.7363 31.2016 94.7629 31.2016 89.8812V73.3445C32.1913 74.5306 33.3469 75.5919 34.6716 76.5189C39.8107 80.124 46.2314 80.9605 50.7403 81.0261H81.347C84.9093 81.0261 87.8046 83.9694 87.8046 87.5839V92.1785H87.8015Z" fill="white"/>
</svg>
