<svg width="100" height="100" viewBox="0 0 100 100" fill="none" xmlns="http://www.w3.org/2000/svg">
<g clip-path="url(#clip0)">
<path d="M76.6523 65.3691C75.7891 65.8262 74.9004 66.2324 73.9863 66.5625C71.0664 67.6543 67.9941 68.2129 64.8711 68.2129C52.8613 68.2129 42.4004 59.9609 42.4004 49.3477C42.4258 46.4531 44.0254 43.7871 46.5645 42.416C35.6973 42.873 32.9043 54.1973 32.9043 60.8242C32.9043 79.5879 50.1953 81.4922 53.9277 81.4922C55.9336 81.4922 58.9551 80.9082 60.7832 80.3242L61.1133 80.2227C68.1211 77.8105 74.0625 73.0879 78.0234 66.8164C78.3281 66.334 78.1758 65.7246 77.7188 65.4199C77.3887 65.2168 76.9824 65.1914 76.6523 65.3691Z" fill="url(#paint0_linear)"/>
<path opacity="0.35" d="M76.6523 65.3691C75.7891 65.8262 74.9004 66.2324 73.9863 66.5625C71.0664 67.6543 67.9941 68.2129 64.8711 68.2129C52.8613 68.2129 42.4004 59.9609 42.4004 49.3477C42.4258 46.4531 44.0254 43.7871 46.5645 42.416C35.6973 42.873 32.9043 54.1973 32.9043 60.8242C32.9043 79.5879 50.1953 81.4922 53.9277 81.4922C55.9336 81.4922 58.9551 80.9082 60.7832 80.3242L61.1133 80.2227C68.1211 77.8105 74.0625 73.0879 78.0234 66.8164C78.3281 66.334 78.1758 65.7246 77.7188 65.4199C77.3887 65.2168 76.9824 65.1914 76.6523 65.3691Z" fill="url(#paint1_radial)"/>
<path d="M44.8379 78.293C42.5781 76.8965 40.623 75.043 39.0742 72.8848C32.3965 63.7441 34.4023 50.9219 43.543 44.2441C44.5078 43.5586 45.498 42.9238 46.5645 42.416C47.3516 42.0351 48.6973 41.375 50.5 41.4004C53.0645 41.4258 55.4766 42.6445 57.0254 44.7012C58.041 46.0723 58.625 47.7226 58.6504 49.4492C58.6504 49.3984 64.8711 29.2383 38.3379 29.2383C27.1914 29.2383 18.0254 39.8262 18.0254 49.0937C17.9746 53.9941 19.041 58.8691 21.0977 63.3125C28.1055 78.2422 45.168 85.5547 60.8086 80.3496C55.4512 82.0254 49.6113 81.2891 44.8379 78.293Z" fill="url(#paint2_linear)"/>
<path opacity="0.41" d="M44.8379 78.293C42.5781 76.8965 40.623 75.043 39.0742 72.8848C32.3965 63.7441 34.4023 50.9219 43.543 44.2441C44.5078 43.5586 45.498 42.9238 46.5645 42.416C47.3516 42.0351 48.6973 41.375 50.5 41.4004C53.0645 41.4258 55.4766 42.6445 57.0254 44.7012C58.041 46.0723 58.625 47.7226 58.6504 49.4492C58.6504 49.3984 64.8711 29.2383 38.3379 29.2383C27.1914 29.2383 18.0254 39.8262 18.0254 49.0937C17.9746 53.9941 19.041 58.8691 21.0977 63.3125C28.1055 78.2422 45.168 85.5547 60.8086 80.3496C55.4512 82.0254 49.6113 81.2891 44.8379 78.293Z" fill="url(#paint3_radial)"/>
<path d="M56.6699 54.8066C56.4668 55.0605 55.832 55.4414 55.832 56.2539C55.832 56.9141 56.2637 57.5488 57.0254 58.082C60.6816 60.6211 67.5625 60.291 67.5879 60.291C70.3047 60.291 72.9453 59.5547 75.2813 58.1836C80.0547 55.3906 83 50.2871 83 44.752C83.0762 39.0645 80.9687 35.2813 80.1309 33.6055C74.748 23.0684 63.1191 17 50.5 17C32.7266 17 18.2539 31.2695 18 49.043C18.127 39.7754 27.3437 32.2852 38.3125 32.2852C39.2012 32.2852 44.2793 32.3613 48.9766 34.8496C53.1152 37.0332 55.2988 39.6484 56.7969 42.2637C58.3711 44.9805 58.6504 48.3828 58.6504 49.7539C58.6504 51.0996 57.9648 53.1309 56.6699 54.8066Z" fill="url(#paint4_radial)"/>
<path d="M56.6699 54.8066C56.4668 55.0605 55.832 55.4414 55.832 56.2539C55.832 56.9141 56.2637 57.5488 57.0254 58.082C60.6816 60.6211 67.5625 60.291 67.5879 60.291C70.3047 60.291 72.9453 59.5547 75.2813 58.1836C80.0547 55.3906 83 50.2871 83 44.752C83.0762 39.0645 80.9687 35.2813 80.1309 33.6055C74.748 23.0684 63.1191 17 50.5 17C32.7266 17 18.2539 31.2695 18 49.043C18.127 39.7754 27.3437 32.2852 38.3125 32.2852C39.2012 32.2852 44.2793 32.3613 48.9766 34.8496C53.1152 37.0332 55.2988 39.6484 56.7969 42.2637C58.3711 44.9805 58.6504 48.3828 58.6504 49.7539C58.6504 51.0996 57.9648 53.1309 56.6699 54.8066Z" fill="url(#paint5_radial)"/>
</g>
<defs>
<linearGradient id="paint0_linear" x1="32.9054" y1="61.9465" x2="78.1724" y2="61.9465" gradientUnits="userSpaceOnUse">
<stop stop-color="#0C59A4"/>
<stop offset="1" stop-color="#114A8B"/>
</linearGradient>
<radialGradient id="paint1_radial" cx="0" cy="0" r="1" gradientUnits="userSpaceOnUse" gradientTransform="translate(57.9121 62.3061) scale(24.2152 23.0019)">
<stop offset="0.72" stop-opacity="0"/>
<stop offset="0.95" stop-opacity="0.53"/>
<stop offset="1"/>
</radialGradient>
<linearGradient id="paint2_linear" x1="56.7896" y1="42.3262" x2="28.5111" y2="73.1281" gradientUnits="userSpaceOnUse">
<stop stop-color="#1B9DE2"/>
<stop offset="0.16" stop-color="#1595DF"/>
<stop offset="0.67" stop-color="#0680D7"/>
<stop offset="1" stop-color="#0078D4"/>
</linearGradient>
<radialGradient id="paint3_radial" cx="0" cy="0" r="1" gradientUnits="userSpaceOnUse" gradientTransform="translate(35.9278 67.5297) rotate(-81.3826) scale(36.4096 29.4211)">
<stop offset="0.76" stop-opacity="0"/>
<stop offset="0.95" stop-opacity="0.5"/>
<stop offset="1"/>
</radialGradient>
<radialGradient id="paint4_radial" cx="0" cy="0" r="1" gradientUnits="userSpaceOnUse" gradientTransform="translate(24.5641 29.0332) rotate(92.2909) scale(51.429 109.55)">
<stop stop-color="#35C1F1"/>
<stop offset="0.11" stop-color="#34C1ED"/>
<stop offset="0.23" stop-color="#2FC2DF"/>
<stop offset="0.31" stop-color="#2BC3D2"/>
<stop offset="0.67" stop-color="#36C752"/>
</radialGradient>
<radialGradient id="paint5_radial" cx="0" cy="0" r="1" gradientUnits="userSpaceOnUse" gradientTransform="translate(78.9528 36.6538) rotate(73.7366) scale(24.7105 20.0984)">
<stop stop-color="#66EB6E"/>
<stop offset="1" stop-color="#66EB6E" stop-opacity="0"/>
</radialGradient>
<clipPath id="clip0">
<rect width="65" height="65" fill="white" transform="translate(18 17)"/>
</clipPath>
</defs>
</svg>
