<svg width="100" height="100" viewBox="0 0 100 100" fill="none" xmlns="http://www.w3.org/2000/svg">
<path d="M39.8105 67.8066C36.2051 63.5664 33.8945 57.2949 33.7422 50.2617V48.7383C33.8945 41.7051 36.2305 35.4336 39.8105 31.1934C44.4824 25.1504 51.3379 22.4336 59.082 22.4336C63.8555 22.4336 68.3496 22.7637 72.1582 25.3027C66.4453 20.1484 58.9043 17.0254 50.627 17H50.5C32.5488 17 18 31.5488 18 49.5C18 66.918 31.7109 81.1621 48.9512 81.9746C49.459 82 49.9922 82 50.5 82C58.8281 82 66.4199 78.877 72.1582 73.7227C68.3496 76.2617 64.1094 76.3633 59.3359 76.3633C51.6172 76.3887 44.457 73.875 39.8105 67.8066Z" fill="url(#paint0_linear)"/>
<path d="M39.8105 31.1934C42.7813 27.6641 46.6406 25.5566 50.8555 25.5566C60.3262 25.5566 67.9941 36.2715 67.9941 49.5254C67.9941 62.7793 60.3262 73.4941 50.8555 73.4941C46.6406 73.4941 42.8066 71.3613 39.8105 67.8574C44.4824 73.9004 51.4141 77.7598 59.1328 77.7598C63.8809 77.7598 68.3496 76.3125 72.1582 73.7734C78.8106 67.7813 83 59.123 83 49.5C83 39.877 78.8106 31.2187 72.1582 25.2773C68.3496 22.7383 63.9063 21.291 59.1328 21.291C51.3887 21.291 44.457 25.125 39.8105 31.1934Z" fill="url(#paint1_linear)"/>
<defs>
<linearGradient id="paint0_linear" x1="45.0805" y1="18.0598" x2="45.0805" y2="81.0541" gradientUnits="userSpaceOnUse">
<stop offset="0.3" stop-color="#FF1B2D"/>
<stop offset="0.4381" stop-color="#FA1A2C"/>
<stop offset="0.5939" stop-color="#ED1528"/>
<stop offset="0.7581" stop-color="#D60E21"/>
<stop offset="0.9272" stop-color="#B70519"/>
<stop offset="1" stop-color="#A70014"/>
</linearGradient>
<linearGradient id="paint1_linear" x1="61.4011" y1="21.7727" x2="61.4011" y2="77.4881" gradientUnits="userSpaceOnUse">
<stop stop-color="#9C0000"/>
<stop offset="0.7" stop-color="#FF4B4B"/>
</linearGradient>
</defs>
</svg>
