<svg width="100" height="100" viewBox="0 0 100 100" fill="none" xmlns="http://www.w3.org/2000/svg">
<g clip-path="url(#clip0)">
<g filter="url(#filter0_d)">
<path d="M49.5 80.4766C66.8883 80.4766 80.9844 66.3805 80.9844 48.9922C80.9844 31.6038 66.8883 17.5078 49.5 17.5078C32.1117 17.5078 18.0156 31.6038 18.0156 48.9922C18.0156 66.3805 32.1117 80.4766 49.5 80.4766Z" fill="url(#paint0_linear)"/>
</g>
<path d="M49.5 78.1152C65.5842 78.1152 78.623 65.0764 78.623 48.9922C78.623 32.908 65.5842 19.8692 49.5 19.8692C33.4158 19.8692 20.377 32.908 20.377 48.9922C20.377 65.0764 33.4158 78.1152 49.5 78.1152Z" fill="url(#paint1_radial)"/>
<path d="M49.5492 26.9531C49.3524 26.9531 49.1802 26.8055 49.1802 26.6088V21.468C49.1802 21.2712 49.3524 21.1236 49.5492 21.1236C49.746 21.1236 49.9181 21.2712 49.9181 21.468V26.6088C49.8935 26.8055 49.746 26.9531 49.5492 26.9531Z" fill="#F3F3F3"/>
<path d="M49.5492 26.9777C49.3278 26.9777 49.1556 26.8056 49.1556 26.6088V21.468C49.1556 21.2712 49.3278 21.099 49.5492 21.099C49.7706 21.099 49.9428 21.2712 49.9428 21.468V26.6088C49.9428 26.8056 49.746 26.9777 49.5492 26.9777ZM49.5492 21.1482C49.377 21.1482 49.2048 21.2958 49.2048 21.468V26.6088C49.2048 26.781 49.3524 26.9285 49.5492 26.9285C49.7214 26.9285 49.8936 26.781 49.8936 26.6088V21.468C49.869 21.2958 49.7214 21.1482 49.5492 21.1482Z" fill="white"/>
<path d="M52.0089 24.1983C51.8121 24.1737 51.6646 24.0261 51.6646 23.8293L51.8367 21.5418C51.8613 21.345 52.0335 21.1974 52.2303 21.222C52.4271 21.2466 52.5746 21.3942 52.5746 21.591L52.4025 23.8785C52.3779 24.0753 52.2057 24.2229 52.0089 24.1983Z" fill="#F3F3F3"/>
<path d="M52.0089 24.2228C51.7875 24.1982 51.6399 24.0261 51.6399 23.8293L51.8121 21.5417C51.8367 21.345 52.0089 21.1728 52.2303 21.1974C52.4517 21.222 52.5992 21.3942 52.5992 21.5909L52.4271 23.8785C52.4025 24.0999 52.2303 24.2474 52.0089 24.2228ZM52.2303 21.2466C52.0581 21.2466 51.8859 21.3696 51.8859 21.5417L51.7137 23.8293C51.7137 24.0015 51.8367 24.149 52.0335 24.1736C52.2057 24.1736 52.3779 24.0507 52.3779 23.8785L52.55 21.5909C52.55 21.4188 52.4025 21.2712 52.2303 21.2466Z" fill="white"/>
<path d="M53.8537 27.3959C53.6569 27.3467 53.5339 27.1745 53.5585 26.9777L54.567 21.9353C54.6162 21.7385 54.7884 21.6155 54.9852 21.6647C55.1819 21.7139 55.3049 21.8861 55.2803 22.0829L54.2718 27.1253C54.2472 27.2975 54.0505 27.4205 53.8537 27.3959Z" fill="#F3F3F3"/>
<path d="M53.8537 27.4205C53.6323 27.3713 53.5093 27.1745 53.5339 26.9777L54.5424 21.9353C54.5916 21.7385 54.7884 21.5909 55.0098 21.6401C55.2311 21.6893 55.3541 21.8861 55.3295 22.0829L54.321 27.1253C54.2719 27.3221 54.0751 27.4451 53.8537 27.4205ZM55.0098 21.6893C54.8376 21.6647 54.6654 21.7631 54.6162 21.9353L53.6077 26.9777C53.5831 27.1499 53.6815 27.3221 53.8783 27.3713C54.0505 27.3959 54.2227 27.2975 54.2719 27.1253L55.2803 22.0829C55.3049 21.8861 55.1819 21.7385 55.0098 21.6893Z" fill="white"/>
<path d="M56.8054 25.1821C56.6086 25.1329 56.4856 24.9362 56.5348 24.7394L57.1497 22.5256C57.1989 22.3289 57.3957 22.2305 57.5925 22.2797C57.7892 22.3289 57.9122 22.5256 57.863 22.7224L57.2481 24.9362C57.1989 25.1329 57.0021 25.2313 56.8054 25.1821Z" fill="#F3F3F3"/>
<path d="M56.8054 25.2067C56.6086 25.1575 56.461 24.9362 56.5348 24.7394L57.1497 22.5256C57.1989 22.3289 57.4203 22.2059 57.6171 22.2551C57.8138 22.3043 57.9614 22.5256 57.8876 22.7224L57.2727 24.9362C57.2235 25.1329 57.0267 25.2559 56.8054 25.2067ZM57.6171 22.3289C57.4449 22.2797 57.2481 22.3781 57.1989 22.5502L56.584 24.764C56.5348 24.9362 56.6332 25.1083 56.83 25.1575C57.0021 25.2067 57.1989 25.1083 57.2481 24.9362L57.863 22.7224C57.8876 22.5502 57.7893 22.3781 57.6171 22.3289Z" fill="white"/>
<path d="M58.0106 28.6503C57.8138 28.5765 57.74 28.3552 57.8138 28.183L59.7816 23.4357C59.8554 23.2636 60.0768 23.1652 60.249 23.2636C60.4457 23.3373 60.5195 23.5587 60.4457 23.7309L58.478 28.4782C58.4042 28.6503 58.1828 28.7487 58.0106 28.6503Z" fill="#F3F3F3"/>
<path d="M58.0106 28.6749C57.8138 28.6011 57.7155 28.3798 57.7893 28.183L59.757 23.4357C59.8308 23.2389 60.0522 23.1652 60.2736 23.2389C60.4703 23.3127 60.5687 23.5341 60.4949 23.7309L58.5272 28.4781C58.4288 28.6749 58.2074 28.7733 58.0106 28.6749ZM60.249 23.2881C60.0768 23.2143 59.88 23.2881 59.8062 23.4603L57.8384 28.2076C57.7647 28.3798 57.863 28.5519 58.0352 28.6257C58.2074 28.6995 58.4042 28.6257 58.478 28.4535L60.4457 23.7063C60.4949 23.5587 60.4211 23.3619 60.249 23.2881Z" fill="white"/>
<path d="M61.3312 27.0761C61.1591 26.9777 61.0853 26.7809 61.1591 26.6088L62.1921 24.5672C62.2905 24.395 62.4873 24.3212 62.6841 24.4196C62.8563 24.518 62.9301 24.7148 62.8563 24.887L61.8232 26.9285C61.7248 27.1007 61.528 27.1745 61.3312 27.0761Z" fill="#F3F3F3"/>
<path d="M61.3312 27.1007C61.1345 27.0023 61.0607 26.7809 61.1591 26.5842L62.1921 24.5426C62.2905 24.3458 62.5119 24.272 62.7087 24.3704C62.9055 24.4688 62.9792 24.6902 62.8809 24.887L61.8478 26.9285C61.7494 27.1253 61.528 27.1991 61.3312 27.1007ZM62.6841 24.4196C62.5119 24.3458 62.3151 24.395 62.2413 24.5672L61.2083 26.6088C61.1345 26.7563 61.2083 26.9531 61.3558 27.0515C61.528 27.1253 61.7248 27.0761 61.7986 26.9039L62.8317 24.8624C62.9055 24.7148 62.8317 24.518 62.6841 24.4196Z" fill="white"/>
<path d="M61.8232 30.7165C61.651 30.5935 61.6018 30.3721 61.7248 30.2246L64.5781 25.9692C64.6765 25.7971 64.8978 25.7725 65.07 25.8709C65.2422 25.9938 65.2914 26.2152 65.1684 26.3628L62.3151 30.6181C62.2167 30.7903 61.9954 30.8395 61.8232 30.7165Z" fill="#F3F3F3"/>
<path d="M61.8232 30.7411C61.651 30.6181 61.6018 30.3721 61.7002 30.1999L64.5535 25.9446C64.6765 25.7724 64.8978 25.7233 65.0946 25.8462C65.2668 25.9692 65.316 26.2152 65.2176 26.3874L62.3643 30.6427C62.2413 30.8149 61.9954 30.8641 61.8232 30.7411ZM65.07 25.8954C64.9224 25.797 64.701 25.8216 64.6027 25.9692L61.7494 30.2245C61.651 30.3721 61.7002 30.5689 61.8478 30.6673C61.9954 30.7657 62.2167 30.7411 62.3151 30.5935L65.1684 26.3628C65.2668 26.2152 65.2176 25.9938 65.07 25.8954Z" fill="white"/>
<path d="M65.4144 29.8064C65.2668 29.6834 65.2176 29.462 65.3406 29.3144L66.7672 27.5189C66.8902 27.3713 67.1116 27.3467 67.2592 27.4697C67.4067 27.5926 67.4559 27.814 67.333 27.9616L65.9063 29.7572C65.7833 29.9048 65.562 29.9294 65.4144 29.8064Z" fill="#F3F3F3"/>
<path d="M65.3898 29.831C65.2176 29.708 65.193 29.462 65.316 29.2899L66.7426 27.4943C66.8656 27.3221 67.1116 27.2975 67.2838 27.4451C67.4559 27.5681 67.4805 27.814 67.3575 27.9862L65.9309 29.7818C65.8079 29.954 65.562 29.9786 65.3898 29.831ZM67.2346 27.4943C67.087 27.3713 66.8902 27.3959 66.7672 27.5435L65.3406 29.3391C65.2422 29.4866 65.2668 29.6834 65.4144 29.8064C65.562 29.9294 65.7587 29.9048 65.8817 29.7572L67.3083 27.9616C67.4067 27.814 67.3821 27.5927 67.2346 27.4943Z" fill="white"/>
<path d="M65.1684 33.496C65.0208 33.3484 65.0208 33.127 65.1684 33.004L68.8088 29.3882C68.9564 29.2407 69.1777 29.2653 69.3007 29.3882C69.4237 29.5112 69.4483 29.7572 69.3007 29.8802L65.6849 33.496C65.5374 33.6436 65.316 33.6436 65.1684 33.496Z" fill="#F3F3F3"/>
<path d="M65.1438 33.5206C64.9962 33.373 64.9962 33.127 65.1438 32.9794L68.7842 29.3636C68.9318 29.2161 69.1777 29.2161 69.3253 29.3636C69.4729 29.5112 69.4729 29.7572 69.3253 29.9048L65.6849 33.5206C65.5373 33.6682 65.2914 33.6682 65.1438 33.5206ZM69.3007 29.3882C69.1777 29.2653 68.9564 29.2653 68.8334 29.3882L65.193 33.004C65.07 33.127 65.07 33.3484 65.193 33.4714C65.316 33.5944 65.5374 33.5944 65.6603 33.4714L69.3007 29.8556C69.4237 29.7326 69.4237 29.5358 69.3007 29.3882Z" fill="white"/>
<path d="M68.858 33.2992C68.735 33.1516 68.735 32.9302 68.8826 32.8073L70.629 31.3314C70.7765 31.2084 70.9979 31.233 71.1209 31.3806C71.2439 31.5282 71.2439 31.7496 71.0963 31.8726L69.3499 33.3484C69.2023 33.4714 68.981 33.4468 68.858 33.2992Z" fill="#F3F3F3"/>
<path d="M68.8334 33.3238C68.6858 33.1516 68.7104 32.9056 68.858 32.7827L70.6044 31.3068C70.752 31.1592 70.9979 31.1838 71.1455 31.356C71.2931 31.5282 71.2685 31.7742 71.1209 31.8972L69.3745 33.373C69.2269 33.5206 68.981 33.496 68.8334 33.3238ZM71.0963 31.3806C70.9733 31.233 70.7766 31.233 70.629 31.3314L68.8826 32.8072C68.7596 32.9302 68.735 33.127 68.858 33.2746C68.981 33.4222 69.1777 33.4222 69.3253 33.3238L71.0717 31.848C71.2193 31.725 71.2193 31.5282 71.0963 31.3806Z" fill="white"/>
<path d="M67.8741 36.8412C67.7511 36.669 67.8003 36.4476 67.9725 36.3492L72.2524 33.496C72.4246 33.3976 72.6459 33.4468 72.7443 33.5944C72.8673 33.7665 72.8181 33.9879 72.6459 34.0863L68.366 36.9396C68.2185 37.038 67.9971 36.9888 67.8741 36.8412Z" fill="#F3F3F3"/>
<path d="M67.8495 36.8412C67.7265 36.669 67.7757 36.423 67.9479 36.3001L72.2278 33.4468C72.4 33.3238 72.6459 33.373 72.7689 33.5698C72.8919 33.7419 72.8427 33.9879 72.6705 34.1109L68.3906 36.9642C68.2184 37.0872 67.9725 37.038 67.8495 36.8412ZM72.7197 33.619C72.6213 33.4714 72.4246 33.4222 72.277 33.5206L67.9971 36.3738C67.8495 36.4722 67.8003 36.669 67.9233 36.8412C68.0217 36.9888 68.2184 37.038 68.366 36.9396L72.6459 34.0863C72.7935 33.9633 72.8181 33.7665 72.7197 33.619Z" fill="white"/>
<path d="M71.5391 37.3577C71.4407 37.1855 71.4899 36.9642 71.6621 36.8658L73.6544 35.7343C73.8266 35.6359 74.048 35.7097 74.1464 35.8819C74.2448 36.0541 74.1956 36.2755 74.0234 36.3738L72.031 37.5053C71.8588 37.6037 71.6375 37.5299 71.5391 37.3577Z" fill="#F3F3F3"/>
<path d="M71.5145 37.3823C71.4161 37.1855 71.4653 36.9642 71.6374 36.8658L73.6298 35.7343C73.802 35.6359 74.048 35.7097 74.1464 35.8819C74.2448 36.0787 74.1956 36.3 74.0234 36.3984L72.031 37.5299C71.8588 37.6283 71.6129 37.5545 71.5145 37.3823ZM74.1218 35.9065C74.0234 35.7343 73.8266 35.6851 73.679 35.7835L71.6866 36.915C71.5391 37.0134 71.4899 37.2101 71.5637 37.3577C71.662 37.5299 71.8588 37.5791 72.0064 37.4807L73.9988 36.3492C74.1464 36.2755 74.1956 36.0787 74.1218 35.9065Z" fill="white"/>
<path d="M69.8911 40.6292C69.8173 40.4324 69.8911 40.2356 70.0878 40.1618L74.8351 38.194C75.0073 38.1202 75.2286 38.2186 75.3024 38.3908C75.3762 38.5876 75.3024 38.7844 75.1057 38.8582L70.3584 40.8259C70.1862 40.8997 69.9648 40.8259 69.8911 40.6292Z" fill="#F3F3F3"/>
<path d="M69.8664 40.6538C69.7927 40.457 69.8664 40.2356 70.0632 40.1372L74.8105 38.1694C75.0073 38.0957 75.2286 38.194 75.3024 38.3908C75.3762 38.5876 75.3024 38.809 75.1056 38.9074L70.3584 40.8751C70.1616 40.9489 69.9402 40.8505 69.8664 40.6538ZM75.2532 38.4154C75.1794 38.2432 74.9827 38.1694 74.8351 38.2186L70.0878 40.1864C69.9156 40.2602 69.8418 40.457 69.9156 40.6292C69.9894 40.8013 70.1862 40.8751 70.3338 40.8259L75.081 38.8582C75.2532 38.7844 75.327 38.5876 75.2532 38.4154Z" fill="white"/>
<path d="M73.3593 41.859C73.2855 41.6622 73.3839 41.4655 73.5806 41.3917L75.7452 40.6784C75.9174 40.6046 76.1387 40.7276 76.1879 40.8997C76.2617 41.0965 76.1633 41.2933 75.9666 41.3671L73.802 42.0804C73.6298 42.1542 73.4331 42.0558 73.3593 41.859Z" fill="#F3F3F3"/>
<path d="M73.3347 41.8836C73.2609 41.6868 73.3593 41.4655 73.5806 41.3917L75.7452 40.6784C75.942 40.6046 76.1633 40.7275 76.2371 40.9243C76.3109 41.1211 76.2125 41.3425 75.9912 41.4163L73.8266 42.1296C73.6298 42.1788 73.4085 42.0804 73.3347 41.8836ZM76.1879 40.9489C76.1387 40.7767 75.942 40.6784 75.7698 40.7275L73.6052 41.4409C73.4331 41.4901 73.3593 41.6868 73.4085 41.859C73.4577 42.0312 73.6544 42.1296 73.8266 42.0804L75.9912 41.3671C76.1633 41.2933 76.2371 41.1211 76.1879 40.9489Z" fill="white"/>
<path d="M71.1455 44.7861C71.0963 44.5893 71.2193 44.3925 71.4161 44.3679L76.4585 43.384C76.6553 43.3349 76.8275 43.4824 76.8766 43.6792C76.9258 43.876 76.8029 44.0728 76.6061 44.0974L71.5637 45.0813C71.3669 45.1059 71.1701 44.9829 71.1455 44.7861Z" fill="#F3F3F3"/>
<path d="M71.0963 44.7861C71.0471 44.5647 71.1947 44.3679 71.3915 44.3187L76.4339 43.3348C76.6307 43.2856 76.8274 43.4332 76.8766 43.6546C76.9258 43.876 76.7783 44.0727 76.5815 44.1219L71.5391 45.1058C71.3423 45.155 71.1455 45.0074 71.0963 44.7861ZM76.8275 43.6792C76.8029 43.507 76.6307 43.384 76.4585 43.4086L71.4161 44.3925C71.2439 44.4171 71.1209 44.6139 71.1701 44.7861C71.1947 44.9582 71.3669 45.0812 71.5391 45.0566L76.5815 44.0727C76.7537 44.0235 76.8766 43.8514 76.8275 43.6792Z" fill="white"/>
<path d="M74.2939 46.6801C74.2693 46.4833 74.3923 46.3111 74.5891 46.2865L76.852 46.0159C77.0488 45.9913 77.221 46.1389 77.2456 46.3357C77.2702 46.5325 77.1472 46.7046 76.9504 46.7292L74.6875 46.9998C74.5153 47.0244 74.3185 46.8768 74.2939 46.6801Z" fill="#F3F3F3"/>
<path d="M74.2694 46.68C74.2448 46.4587 74.3923 46.2619 74.5891 46.2373L76.8521 45.9667C77.0488 45.9421 77.2456 46.0897 77.2702 46.3111C77.2948 46.5325 77.1472 46.7292 76.9504 46.7538L74.6875 47.0244C74.4907 47.049 74.294 46.9014 74.2694 46.68ZM77.2456 46.3357C77.221 46.1635 77.0488 46.0159 76.8767 46.0405L74.6137 46.3111C74.4415 46.3357 74.3185 46.5079 74.3431 46.68C74.3677 46.8522 74.5399 46.9998 74.7121 46.9752L76.975 46.7046C77.1472 46.68 77.2702 46.5079 77.2456 46.3357Z" fill="white"/>
<path d="M71.5391 49.066C71.5391 48.8692 71.6866 48.697 71.8834 48.697H77.0242C77.221 48.697 77.3686 48.8692 77.3686 49.066C77.3686 49.2628 77.221 49.4349 77.0242 49.4349H71.8834C71.6866 49.4349 71.5391 49.2628 71.5391 49.066Z" fill="#F3F3F3"/>
<path d="M71.5145 49.066C71.5145 48.8446 71.6867 48.6724 71.8834 48.6724H77.0242C77.221 48.6724 77.3932 48.8446 77.3932 49.066C77.3932 49.2874 77.221 49.4595 77.0242 49.4595H71.8834C71.6867 49.4595 71.5145 49.2874 71.5145 49.066ZM77.344 49.0906C77.344 48.9184 77.1964 48.7462 77.0242 48.7462H71.8834C71.7113 48.7462 71.5637 48.8938 71.5637 49.0906C71.5637 49.2628 71.7113 49.4349 71.8834 49.4349H77.0242C77.1964 49.4103 77.344 49.2628 77.344 49.0906Z" fill="white"/>
<path d="M74.2694 51.5503C74.2939 51.3535 74.4415 51.2059 74.6383 51.2059L76.9259 51.3781C77.1226 51.4027 77.2702 51.5749 77.2456 51.7717C77.221 51.9684 77.0734 52.116 76.8767 52.116L74.5891 51.9438C74.4169 51.9192 74.2694 51.7471 74.2694 51.5503Z" fill="#F3F3F3"/>
<path d="M74.2447 51.5503C74.2693 51.3289 74.4415 51.1813 74.6383 51.1813L76.9258 51.3535C77.1226 51.3781 77.2948 51.5503 77.2702 51.7717C77.2456 51.993 77.0734 52.1406 76.8766 52.1406L74.5891 51.9685C74.3923 51.9439 74.2447 51.7471 74.2447 51.5503ZM77.2456 51.7717C77.2702 51.5995 77.1226 51.4273 76.9504 51.4273L74.6629 51.2551C74.4907 51.2551 74.3431 51.3781 74.3185 51.5749C74.2939 51.7471 74.4415 51.9193 74.6137 51.9193L76.9012 52.0914C77.0734 52.0914 77.221 51.9439 77.2456 51.7717Z" fill="white"/>
<path d="M71.0963 53.3459C71.1455 53.1491 71.3177 53.0261 71.5145 53.0507L76.5569 54.0592C76.7537 54.1084 76.8766 54.2806 76.8274 54.4774C76.7783 54.6741 76.6061 54.7971 76.4093 54.7725L71.3669 53.764C71.1947 53.7394 71.0717 53.5427 71.0963 53.3459Z" fill="#F3F3F3"/>
<path d="M71.0717 53.3459C71.1209 53.1245 71.3177 53.0015 71.5145 53.0261L76.5569 54.0346C76.7537 54.0838 76.9012 54.2806 76.852 54.5019C76.8029 54.7233 76.6061 54.8463 76.4093 54.8217L71.3669 53.8132C71.1701 53.764 71.0471 53.5673 71.0717 53.3459ZM76.8029 54.5019C76.8275 54.3298 76.7291 54.1576 76.5569 54.1084L71.5145 53.0999C71.3423 53.0753 71.1701 53.1737 71.1209 53.3705C71.0963 53.5427 71.1947 53.7148 71.3669 53.764L76.4093 54.7725C76.6061 54.7971 76.7537 54.6741 76.8029 54.5019Z" fill="white"/>
<path d="M73.3101 56.2975C73.3593 56.1008 73.556 55.9778 73.7528 56.027L75.9666 56.6419C76.1633 56.6911 76.2617 56.8879 76.2125 57.0847C76.1633 57.2814 75.9666 57.4044 75.7698 57.3552L73.556 56.7403C73.3593 56.6911 73.2609 56.4943 73.3101 56.2975Z" fill="#F3F3F3"/>
<path d="M73.2855 56.2975C73.3347 56.1008 73.556 55.9532 73.7528 56.027L75.9666 56.6419C76.1633 56.6911 76.2863 56.9125 76.2371 57.1093C76.1879 57.306 75.9666 57.4536 75.7698 57.3798L73.556 56.7649C73.3593 56.7157 73.2363 56.5189 73.2855 56.2975ZM76.1633 57.1093C76.2125 56.9371 76.1141 56.7403 75.942 56.6911L73.7282 56.0762C73.556 56.027 73.3839 56.1254 73.3347 56.3221C73.2855 56.4943 73.3839 56.6911 73.556 56.7403L75.7698 57.3552C75.942 57.3798 76.1141 57.2814 76.1633 57.1093Z" fill="white"/>
<path d="M69.8419 57.4782C69.9156 57.2814 70.137 57.2076 70.3092 57.2814L75.0565 59.2492C75.2286 59.323 75.327 59.5444 75.2532 59.7165C75.1794 59.9133 74.9581 59.9871 74.7859 59.9133L70.0386 57.9455C69.8419 57.8718 69.7681 57.6504 69.8419 57.4782Z" fill="#F3F3F3"/>
<path d="M69.8173 57.4536C69.8911 57.2568 70.1124 57.1584 70.3092 57.2322L75.0565 59.2C75.2532 59.2738 75.327 59.4952 75.2532 59.7166C75.1794 59.9133 74.9581 60.0117 74.7613 59.9379L70.014 57.9702C69.8173 57.8718 69.7435 57.6504 69.8173 57.4536ZM75.204 59.692C75.2778 59.5198 75.204 59.323 75.0319 59.2492L70.2846 57.2814C70.1124 57.2076 69.9403 57.306 69.8665 57.4782C69.7927 57.6504 69.8665 57.8472 70.0386 57.921L74.7859 59.8887C74.9581 59.9379 75.1548 59.8641 75.204 59.692Z" fill="white"/>
<path d="M71.4407 60.7988C71.5391 60.6267 71.7358 60.5529 71.908 60.6267L73.9496 61.6597C74.1218 61.7335 74.1956 61.9549 74.0972 62.1517C73.9988 62.3239 73.802 62.3976 73.6298 62.3239L71.5882 61.2908C71.4161 61.1924 71.3423 60.971 71.4407 60.7988Z" fill="#F3F3F3"/>
<path d="M71.4161 60.7742C71.5145 60.5774 71.7358 60.5037 71.9326 60.602L73.9742 61.6351C74.171 61.7335 74.2447 61.9549 74.1464 62.1517C74.048 62.3484 73.8266 62.4222 73.6298 62.3239L71.5882 61.2908C71.3915 61.217 71.3177 60.971 71.4161 60.7742ZM74.0726 62.1271C74.1464 61.9549 74.0972 61.7581 73.925 61.6843L71.8834 60.6512C71.7358 60.5774 71.5391 60.6512 71.4407 60.7988C71.3669 60.971 71.4161 61.1678 71.5882 61.2416L73.6298 62.2747C73.802 62.3484 73.9988 62.2993 74.0726 62.1271Z" fill="white"/>
<path d="M67.8249 61.2662C67.9479 61.094 68.1447 61.0448 68.3168 61.1678L72.5967 64.0211C72.7689 64.1194 72.7935 64.3408 72.6951 64.513C72.5721 64.6852 72.3754 64.7344 72.2032 64.6114L67.9233 61.7581C67.7511 61.6351 67.7019 61.4137 67.8249 61.2662Z" fill="#F3F3F3"/>
<path d="M67.8003 61.2416C67.9233 61.0694 68.1693 61.0202 68.3414 61.1186L72.6213 63.9719C72.7935 64.0949 72.8427 64.3162 72.7197 64.513C72.5967 64.6852 72.3508 64.7344 72.1786 64.636L67.8987 61.7827C67.7019 61.6597 67.6773 61.4138 67.8003 61.2416ZM72.6459 64.4884C72.7443 64.3408 72.7197 64.1195 72.5721 64.0211L68.2922 61.1678C68.1447 61.0694 67.9479 61.1186 67.8495 61.2662C67.7511 61.4138 67.7757 61.6351 67.9233 61.7335L72.2032 64.5868C72.3508 64.6852 72.5475 64.636 72.6459 64.4884Z" fill="white"/>
<path d="M68.735 64.8328C68.858 64.6852 69.0793 64.636 69.2269 64.759L71.0225 66.161C71.1701 66.284 71.1947 66.5054 71.0717 66.653C70.9487 66.8005 70.7274 66.8497 70.5798 66.7268L68.7842 65.3247C68.6366 65.2017 68.612 64.9803 68.735 64.8328Z" fill="#F3F3F3"/>
<path d="M68.7104 64.8082C68.8334 64.636 69.0793 64.6114 69.2515 64.7344L71.0471 66.1364C71.2193 66.2594 71.2439 66.5054 71.1209 66.6775C70.9979 66.8497 70.752 66.8743 70.5798 66.7513L68.7842 65.3493C68.612 65.2263 68.5874 64.9803 68.7104 64.8082ZM71.0717 66.6529C71.1947 66.5054 71.1701 66.3086 71.0225 66.1856L69.2269 64.7836C69.0793 64.6852 68.8826 64.7098 68.7596 64.8574C68.6366 65.0049 68.6612 65.2017 68.8088 65.3247L70.6044 66.7267C70.752 66.8251 70.9487 66.8005 71.0717 66.6529Z" fill="white"/>
<path d="M65.07 64.5868C65.2176 64.4392 65.439 64.4392 65.562 64.5868L69.2023 68.2026C69.3499 68.3502 69.3253 68.5715 69.2023 68.6945C69.0547 68.8421 68.8334 68.8421 68.7104 68.6945L65.07 65.0787C64.947 64.9558 64.947 64.7098 65.07 64.5868Z" fill="#F3F3F3"/>
<path d="M65.07 64.5622C65.2176 64.4146 65.4636 64.4146 65.6111 64.5622L69.2515 68.178C69.3991 68.3256 69.3991 68.5715 69.2515 68.7191C69.1039 68.8667 68.858 68.8667 68.7104 68.7191L65.07 65.1033C64.8978 64.9558 64.8978 64.7098 65.07 64.5622ZM69.2023 68.6699C69.3253 68.5469 69.3253 68.3256 69.2023 68.2026L65.5619 64.5868C65.439 64.4638 65.2176 64.4638 65.0946 64.5868C64.9716 64.7098 64.9716 64.9312 65.0946 65.0541L68.735 68.6699C68.858 68.8175 69.0547 68.8175 69.2023 68.6699Z" fill="white"/>
<path d="M65.2914 68.2518C65.439 68.1288 65.6603 68.1288 65.7833 68.2764L67.2837 69.9982C67.4067 70.1458 67.3821 70.3671 67.2346 70.4901C67.087 70.6131 66.8656 70.6131 66.7426 70.4655L65.2422 68.7437C65.1192 68.6207 65.1438 68.3994 65.2914 68.2518Z" fill="#F3F3F3"/>
<path d="M65.2668 68.2518C65.439 68.1042 65.6603 68.1288 65.8079 68.2764L67.3083 69.9982C67.4559 70.1458 67.4313 70.3917 67.2591 70.5393C67.087 70.6869 66.8656 70.6623 66.718 70.5147L65.2176 68.7929C65.0946 68.6207 65.0946 68.3748 65.2668 68.2518ZM67.2345 70.4901C67.3821 70.3671 67.3821 70.1704 67.2837 70.0228L65.7833 68.301C65.6603 68.178 65.4636 68.1534 65.316 68.2764C65.1684 68.3994 65.1684 68.5961 65.2668 68.7437L66.7672 70.4655C66.8902 70.6131 67.087 70.6131 67.2345 70.4901Z" fill="white"/>
<path d="M61.7494 67.3171C61.9216 67.1941 62.1429 67.2433 62.2413 67.4155L65.0946 71.6708C65.193 71.8429 65.1438 72.0643 64.9962 72.1627C64.824 72.2857 64.6027 72.2365 64.5043 72.0643L61.651 67.809C61.5526 67.6368 61.6018 67.4155 61.7494 67.3171Z" fill="#F3F3F3"/>
<path d="M61.7494 67.2925C61.9216 67.1695 62.1675 67.2187 62.2905 67.3909L65.1438 71.6462C65.2668 71.8184 65.2176 72.0643 65.0208 72.1873C64.8486 72.3103 64.6027 72.2611 64.4797 72.0889L61.6264 67.8336C61.5034 67.6368 61.5526 67.4155 61.7494 67.2925ZM64.9962 72.1381C65.1438 72.0397 65.193 71.8429 65.0946 71.6954L62.2413 67.4401C62.1429 67.2925 61.9462 67.2679 61.774 67.3663C61.6264 67.4647 61.5772 67.6614 61.6756 67.809L64.5289 72.0643C64.6273 72.1873 64.8486 72.2365 64.9962 72.1381Z" fill="white"/>
<path d="M61.2329 70.9575C61.405 70.8591 61.6264 70.9083 61.7248 71.0804L62.8563 73.0728C62.9546 73.245 62.8809 73.4664 62.7087 73.5648C62.5365 73.6632 62.3151 73.614 62.2167 73.4418L61.0853 71.4494C61.0115 71.2772 61.0607 71.0559 61.2329 70.9575Z" fill="#F3F3F3"/>
<path d="M61.2328 70.9329C61.4296 70.8345 61.651 70.8837 61.7494 71.0559L62.8809 73.0482C62.9792 73.2204 62.93 73.4664 62.7333 73.5648C62.5365 73.6632 62.3151 73.614 62.2167 73.4418L61.0853 71.4494C60.9869 71.2772 61.0361 71.0559 61.2328 70.9329ZM62.7087 73.5402C62.8563 73.4418 62.93 73.245 62.8317 73.0974L61.7002 71.105C61.6018 70.9575 61.405 70.9083 61.2574 70.9821C61.1099 71.0804 61.0361 71.2772 61.1345 71.4248L62.2659 73.4172C62.3397 73.5648 62.5611 73.6386 62.7087 73.5402Z" fill="white"/>
<path d="M57.9614 69.3341C58.1582 69.2603 58.355 69.334 58.4288 69.5062L60.4211 74.2535C60.4949 74.4257 60.3965 74.647 60.2244 74.7208C60.0522 74.7946 59.8308 74.7208 59.757 74.5486L57.7646 69.8014C57.6909 69.6292 57.7892 69.4078 57.9614 69.3341Z" fill="#F3F3F3"/>
<path d="M57.9614 69.3094C58.1582 69.2356 58.3796 69.3094 58.478 69.5062L60.4703 74.2535C60.5441 74.4502 60.4457 74.6716 60.249 74.7454C60.0522 74.8192 59.8308 74.7454 59.7324 74.5486L57.7401 69.8014C57.6663 69.6292 57.7647 69.4078 57.9614 69.3094ZM60.1998 74.6962C60.3719 74.6224 60.4457 74.4256 60.3719 74.2781L58.3796 69.5308C58.3058 69.3586 58.109 69.2848 57.9368 69.3586C57.7647 69.4324 57.6909 69.6292 57.7647 69.7768L59.757 74.524C59.8554 74.6962 60.0276 74.77 60.1998 74.6962Z" fill="white"/>
<path d="M56.7562 72.8268C56.9529 72.753 57.1497 72.8514 57.2235 73.0482L57.9368 75.2128C58.0106 75.385 57.8876 75.6063 57.7155 75.6555C57.5187 75.7293 57.3219 75.6309 57.2481 75.4341L56.5348 73.2696C56.461 73.0974 56.5594 72.9006 56.7562 72.8268Z" fill="#F3F3F3"/>
<path d="M56.7316 72.8022C56.9283 72.7284 57.1497 72.8268 57.2235 73.0236L57.9368 75.1882C58.0106 75.3849 57.8876 75.6063 57.6909 75.6801C57.4941 75.7539 57.2727 75.6555 57.1989 75.4587L56.4856 73.2942C56.4364 73.0974 56.5348 72.876 56.7316 72.8022ZM57.6909 75.6309C57.863 75.5817 57.9614 75.3849 57.9122 75.2128L57.1989 73.0482C57.1497 72.876 56.9529 72.8022 56.7808 72.8514C56.6086 72.9006 56.5102 73.0974 56.5594 73.2696L57.2727 75.4341C57.3219 75.6063 57.5187 75.7047 57.6909 75.6309Z" fill="white"/>
<path d="M53.8537 70.5885C54.0505 70.5393 54.2472 70.6623 54.2718 70.8591L55.3049 75.9015C55.3541 76.0983 55.2065 76.2704 55.0098 76.3196C54.813 76.3688 54.6162 76.2458 54.5916 76.0491L53.5585 71.0067C53.5339 70.8345 53.6569 70.6377 53.8537 70.5885Z" fill="#F3F3F3"/>
<path d="M53.8537 70.5639C54.0751 70.5147 54.2718 70.6623 54.321 70.8591L55.3541 75.9015C55.4033 76.0983 55.2557 76.3196 55.059 76.3442C54.8376 76.3934 54.6408 76.2458 54.5916 76.0491L53.5585 71.0066C53.5093 70.8099 53.6323 70.6131 53.8537 70.5639ZM55.0098 76.295C55.1819 76.2704 55.3049 76.0983 55.2803 75.9015L54.2472 70.8591C54.2226 70.6869 54.0259 70.5639 53.8537 70.6131C53.6815 70.6377 53.5585 70.8099 53.5831 71.0066L54.6162 76.0491C54.6654 76.2212 54.8376 76.3196 55.0098 76.295Z" fill="white"/>
<path d="M51.9843 73.7861C52.1811 73.7615 52.3533 73.8845 52.4025 74.0813L52.6976 76.3442C52.7222 76.541 52.5746 76.7132 52.3779 76.7378C52.1811 76.7624 52.0089 76.6394 51.9597 76.4426L51.6646 74.1797C51.64 73.9829 51.7875 73.8107 51.9843 73.7861Z" fill="#F3F3F3"/>
<path d="M51.9843 73.7615C52.2057 73.7369 52.4025 73.8845 52.4271 74.0813L52.7222 76.3442C52.7468 76.541 52.5992 76.7378 52.3779 76.7624C52.1565 76.787 51.9597 76.6394 51.9351 76.4426L51.6399 74.1797C51.6153 73.9829 51.7629 73.7861 51.9843 73.7615ZM52.3533 76.7132C52.5254 76.6886 52.673 76.5164 52.6484 76.3442L52.3533 74.0813C52.3287 73.9091 52.1565 73.7861 51.9843 73.8107C51.8121 73.8353 51.6645 74.0075 51.6891 74.1797L51.9843 76.4426C52.0089 76.6148 52.1811 76.7378 52.3533 76.7132Z" fill="white"/>
<path d="M49.4508 71.0312C49.6476 71.0312 49.8198 71.1788 49.8198 71.3756V76.5164C49.8198 76.7132 49.6476 76.8608 49.4508 76.8608C49.254 76.8608 49.0819 76.7132 49.0819 76.5164V71.3756C49.1064 71.1788 49.254 71.0312 49.4508 71.0312Z" fill="#F3F3F3"/>
<path d="M49.4508 71.0067C49.6722 71.0067 49.8444 71.1788 49.8444 71.3756V76.5164C49.8444 76.7132 49.6722 76.8854 49.4508 76.8854C49.2294 76.8854 49.0572 76.7132 49.0572 76.5164V71.3756C49.0572 71.1788 49.254 71.0067 49.4508 71.0067ZM49.4508 76.8362C49.623 76.8362 49.7952 76.6886 49.7952 76.5164V71.3756C49.7952 71.2034 49.6476 71.0558 49.4508 71.0558C49.2786 71.0558 49.1064 71.2034 49.1064 71.3756V76.5164C49.131 76.6886 49.2786 76.8362 49.4508 76.8362Z" fill="white"/>
<path d="M46.9911 73.7861C47.1879 73.8107 47.3354 73.9583 47.3354 74.1551L47.1633 76.4426C47.1387 76.6394 46.9665 76.787 46.7697 76.7624C46.5729 76.7378 46.4254 76.5902 46.4254 76.3934L46.5975 74.1059C46.6221 73.9091 46.7943 73.7615 46.9911 73.7861Z" fill="#F3F3F3"/>
<path d="M46.9911 73.7615C47.2125 73.7861 47.36 73.9583 47.36 74.1551L47.1879 76.4426C47.1633 76.6394 46.9911 76.8116 46.7697 76.787C46.5483 76.7624 46.4008 76.5902 46.4008 76.3934L46.5729 74.1059C46.5975 73.8845 46.7697 73.7369 46.9911 73.7615ZM46.7697 76.7378C46.9419 76.7378 47.1141 76.6148 47.1141 76.4426L47.2863 74.1551C47.2863 73.9829 47.1633 73.8353 46.9665 73.8107C46.7943 73.8107 46.6221 73.9337 46.6221 74.1059L46.45 76.3934C46.45 76.5656 46.5975 76.7132 46.7697 76.7378Z" fill="white"/>
<path d="M45.1463 70.5885C45.3431 70.6377 45.4661 70.8099 45.4415 71.0066L44.433 76.0491C44.3838 76.2458 44.2116 76.3688 44.0148 76.3196C43.8181 76.2704 43.6951 76.0983 43.7197 75.9015L44.7281 70.8591C44.7527 70.6869 44.9495 70.5639 45.1463 70.5885Z" fill="#F3F3F3"/>
<path d="M45.1463 70.5639C45.3677 70.6131 45.4907 70.8099 45.4661 71.0067L44.4576 76.0491C44.4084 76.2459 44.2116 76.3934 43.9902 76.3442C43.7689 76.295 43.6459 76.0983 43.6705 75.9015L44.679 70.8591C44.7281 70.6623 44.9249 70.5393 45.1463 70.5639ZM43.9902 76.295C44.1624 76.3196 44.3346 76.2213 44.3838 76.0491L45.3923 71.0067C45.4169 70.8345 45.3185 70.6623 45.1217 70.6131C44.9495 70.5885 44.7773 70.6869 44.7281 70.8591L43.7197 75.9015C43.6951 76.0983 43.8181 76.2459 43.9902 76.295Z" fill="white"/>
<path d="M42.1946 72.8022C42.3914 72.8514 42.5144 73.0482 42.4652 73.245L41.8503 75.4587C41.8011 75.6555 41.6043 75.7539 41.4075 75.7047C41.2108 75.6555 41.0878 75.4587 41.137 75.262L41.7519 73.0482C41.8011 72.8514 41.9979 72.753 42.1946 72.8022Z" fill="#F3F3F3"/>
<path d="M42.1946 72.7776C42.3914 72.8268 42.539 73.0482 42.4652 73.245L41.8503 75.4587C41.8011 75.6555 41.5797 75.7785 41.3829 75.7293C41.1862 75.6801 41.0386 75.4587 41.1124 75.262L41.7273 73.0482C41.7765 72.8514 41.9733 72.7285 42.1946 72.7776ZM41.3829 75.6555C41.5551 75.7047 41.7519 75.6063 41.8011 75.4341L42.416 73.2204C42.4652 73.0482 42.3668 72.876 42.17 72.8268C41.9979 72.7776 41.8011 72.876 41.7519 73.0482L41.137 75.262C41.1124 75.4341 41.2108 75.6063 41.3829 75.6555Z" fill="white"/>
<path d="M40.9894 69.334C41.1862 69.4078 41.2599 69.6292 41.1862 69.8014L39.2184 74.5486C39.1446 74.7208 38.9232 74.8192 38.751 74.7208C38.5789 74.6224 38.4805 74.4257 38.5543 74.2535L40.522 69.5062C40.5958 69.334 40.8172 69.2356 40.9894 69.334Z" fill="#F3F3F3"/>
<path d="M40.9894 69.3094C41.1862 69.3832 41.2845 69.6046 41.2108 69.8014L39.243 74.5486C39.1692 74.7454 38.9478 74.8192 38.7264 74.7454C38.5297 74.6716 38.4313 74.4503 38.5051 74.2535L40.4728 69.5062C40.5712 69.3094 40.7926 69.2111 40.9894 69.3094ZM38.751 74.6962C38.9232 74.77 39.12 74.6962 39.1938 74.524L41.1616 69.7768C41.2354 69.6046 41.137 69.4324 40.9648 69.3586C40.7926 69.2848 40.5958 69.3586 40.522 69.5308L38.5543 74.2781C38.5051 74.4257 38.5789 74.6224 38.751 74.6962Z" fill="white"/>
<path d="M37.6688 70.9083C37.8409 71.0067 37.9147 71.2034 37.8409 71.3756L36.8079 73.4172C36.7095 73.5894 36.5127 73.6631 36.3159 73.5648C36.1437 73.4664 36.0699 73.2696 36.1437 73.0974L37.1768 71.0558C37.2752 70.8837 37.472 70.8099 37.6688 70.9083Z" fill="#F3F3F3"/>
<path d="M37.6688 70.8837C37.8655 70.982 37.9393 71.2034 37.8409 71.4002L36.8079 73.4418C36.7095 73.6385 36.4881 73.7123 36.2913 73.6139C36.0945 73.5156 36.0208 73.2942 36.1191 73.0974L37.1522 71.0558C37.2506 70.8591 37.472 70.7853 37.6688 70.8837ZM36.3159 73.5648C36.4881 73.6385 36.6849 73.5893 36.7587 73.4172L37.7917 71.3756C37.8655 71.228 37.7917 71.0312 37.6442 70.9329C37.472 70.8591 37.2752 70.9083 37.2014 71.0804L36.1683 73.122C36.0945 73.2696 36.1683 73.4664 36.3159 73.5648Z" fill="white"/>
<path d="M37.1768 67.2679C37.349 67.3909 37.3982 67.6122 37.2752 67.7598L34.4219 72.0151C34.3235 72.1873 34.1022 72.2119 33.93 72.1135C33.7578 71.9905 33.7086 71.7692 33.8316 71.6216L36.6849 67.3663C36.7833 67.1941 37.0046 67.1449 37.1768 67.2679Z" fill="#F3F3F3"/>
<path d="M37.1768 67.2433C37.349 67.3663 37.3982 67.6122 37.2998 67.7844L34.4465 72.0397C34.3235 72.2119 34.1022 72.2611 33.9054 72.1381C33.7332 72.0151 33.684 71.7692 33.7824 71.597L36.6357 67.3417C36.7587 67.1695 37.0046 67.1203 37.1768 67.2433ZM33.93 72.0889C34.0776 72.1873 34.2989 72.1627 34.3973 72.0151L37.2506 67.7598C37.349 67.6122 37.2998 67.4155 37.1522 67.3171C37.0046 67.2187 36.7833 67.2433 36.6849 67.3909L33.8316 71.6216C33.7332 71.7692 33.7824 71.9905 33.93 72.0889Z" fill="white"/>
<path d="M33.5856 68.178C33.7332 68.301 33.7824 68.5223 33.6594 68.6699L32.2328 70.4655C32.1098 70.6131 31.8884 70.6377 31.7408 70.5147C31.5933 70.3917 31.5441 70.1703 31.6671 70.0228L33.0937 68.2272C33.2167 68.0796 33.438 68.055 33.5856 68.178Z" fill="#F3F3F3"/>
<path d="M33.6102 68.1534C33.7824 68.2764 33.807 68.5223 33.684 68.6945L32.2574 70.4901C32.1344 70.6623 31.8884 70.6869 31.7162 70.5393C31.5441 70.4163 31.5195 70.1703 31.6425 69.9982L33.0691 68.2026C33.1921 68.0304 33.438 68.0058 33.6102 68.1534ZM31.7654 70.4901C31.913 70.6131 32.1098 70.5885 32.2328 70.4409L33.6594 68.6453C33.7578 68.4977 33.7332 68.301 33.5856 68.178C33.438 68.055 33.2413 68.0796 33.1183 68.2272L31.6916 70.0228C31.5933 70.1703 31.6179 70.3917 31.7654 70.4901Z" fill="white"/>
<path d="M33.8316 64.4884C33.9792 64.636 33.9792 64.8574 33.8316 64.9803L30.1912 68.5961C30.0436 68.7437 29.8223 68.7191 29.6993 68.5961C29.5763 68.4731 29.5517 68.2272 29.6993 68.1042L33.3151 64.4884C33.4626 64.3408 33.684 64.3408 33.8316 64.4884Z" fill="#F3F3F3"/>
<path d="M33.8562 64.4638C34.0038 64.6114 34.0038 64.8574 33.8562 65.0049L30.2158 68.6207C30.0682 68.7683 29.8223 68.7683 29.6747 68.6207C29.5271 68.4731 29.5271 68.2272 29.6747 68.0796L33.3151 64.4638C33.4626 64.3162 33.7086 64.3162 33.8562 64.4638ZM29.6993 68.5961C29.8223 68.7191 30.0436 68.7191 30.1666 68.5961L33.807 64.9803C33.93 64.8574 33.93 64.636 33.807 64.513C33.684 64.39 33.4626 64.39 33.3397 64.513L29.6993 68.1288C29.5763 68.2518 29.5763 68.4486 29.6993 68.5961Z" fill="white"/>
<path d="M30.142 64.6852C30.265 64.8328 30.265 65.0541 30.1174 65.1771L28.371 66.653C28.2234 66.776 28.0021 66.7514 27.8791 66.6038C27.7561 66.4562 27.7561 66.2348 27.9037 66.1118L29.6501 64.636C29.7977 64.513 30.019 64.5376 30.142 64.6852Z" fill="#F3F3F3"/>
<path d="M30.1666 64.6606C30.3142 64.8328 30.2896 65.0787 30.142 65.2017L28.3956 66.6775C28.248 66.8251 28.0021 66.8005 27.8545 66.6284C27.7069 66.4562 27.7315 66.2102 27.8791 66.0872L29.6255 64.6114C29.7731 64.4638 30.019 64.4884 30.1666 64.6606ZM27.9037 66.6038C28.0267 66.7513 28.2234 66.7513 28.371 66.653L30.1174 65.1771C30.2404 65.0541 30.265 64.8574 30.142 64.7098C30.019 64.5622 29.8223 64.5622 29.6747 64.6606L27.9283 66.1364C27.7807 66.2594 27.7807 66.4562 27.9037 66.6038Z" fill="white"/>
<path d="M31.1259 61.1432C31.2489 61.3154 31.1997 61.5368 31.0275 61.6351L26.7476 64.4884C26.5754 64.5868 26.3541 64.5376 26.2557 64.39C26.1327 64.2178 26.1819 63.9965 26.3541 63.8981L30.634 61.0448C30.7816 60.9464 31.0029 60.9956 31.1259 61.1432Z" fill="#F3F3F3"/>
<path d="M31.1505 61.1432C31.2735 61.3154 31.2243 61.5613 31.0521 61.6843L26.7722 64.5376C26.6 64.6606 26.3541 64.6114 26.2311 64.4146C26.1081 64.2424 26.1573 63.9965 26.3295 63.8735L30.6094 61.0202C30.7816 60.8972 31.0275 60.9464 31.1505 61.1432ZM26.2803 64.3654C26.3787 64.513 26.5754 64.5622 26.723 64.4638L31.0029 61.6105C31.1505 61.5121 31.1997 61.3154 31.0767 61.1432C30.9783 60.9956 30.7816 60.9464 30.634 61.0448L26.3541 63.8981C26.2065 64.0211 26.1819 64.2178 26.2803 64.3654Z" fill="white"/>
<path d="M27.4609 60.6266C27.5593 60.7988 27.5101 61.0202 27.338 61.1186L25.3456 62.2501C25.1734 62.3485 24.952 62.2747 24.8536 62.1025C24.7552 61.9303 24.8044 61.7089 24.9766 61.6105L26.969 60.4791C27.1412 60.3807 27.3625 60.4545 27.4609 60.6266Z" fill="#F3F3F3"/>
<path d="M27.4855 60.6021C27.5839 60.7988 27.5347 61.0202 27.3625 61.1186L25.3702 62.2501C25.198 62.3485 24.952 62.2747 24.8536 62.1025C24.7552 61.9057 24.8044 61.6843 24.9766 61.5859L26.969 60.4545C27.1412 60.3561 27.3871 60.4299 27.4855 60.6021ZM24.8782 62.0779C24.9766 62.2501 25.1734 62.2993 25.321 62.2009L27.3134 61.0694C27.4609 60.971 27.5101 60.7742 27.4363 60.6266C27.338 60.4545 27.1412 60.4053 26.9936 60.5037L25.0012 61.6351C24.8536 61.7089 24.8044 61.9057 24.8782 62.0779Z" fill="white"/>
<path d="M29.1089 57.3552C29.1827 57.552 29.1089 57.7488 28.9122 57.8226L24.1649 59.7903C23.9927 59.8641 23.7714 59.7657 23.6976 59.5936C23.6238 59.3968 23.6976 59.2 23.8943 59.1262L28.6416 57.1584C28.8138 57.0846 29.0352 57.1584 29.1089 57.3552Z" fill="#F3F3F3"/>
<path d="M29.1335 57.3306C29.2073 57.5274 29.1335 57.7488 28.9368 57.8472L24.1895 59.8149C23.9927 59.8887 23.7714 59.7903 23.6976 59.5936C23.6238 59.3968 23.6976 59.1754 23.8943 59.077L28.6416 57.1092C28.8384 57.0355 29.0598 57.1338 29.1335 57.3306ZM23.7468 59.569C23.8206 59.7412 24.0173 59.8149 24.1649 59.7657L28.9122 57.798C29.0843 57.7242 29.1581 57.5274 29.0843 57.3552C29.0106 57.183 28.8138 57.1092 28.6662 57.1584L23.9189 59.1262C23.7468 59.2 23.673 59.3968 23.7468 59.569Z" fill="white"/>
<path d="M25.6407 56.1254C25.7145 56.3221 25.6161 56.5189 25.4194 56.5927L23.2548 57.306C23.0826 57.3798 22.8613 57.2568 22.8121 57.0846C22.7383 56.8879 22.8367 56.6911 23.0334 56.6173L25.198 55.904C25.3702 55.8302 25.567 55.9286 25.6407 56.1254Z" fill="#F3F3F3"/>
<path d="M25.6653 56.1008C25.7391 56.2975 25.6407 56.5189 25.4194 56.5927L23.2548 57.306C23.058 57.3798 22.8367 57.2568 22.7629 57.0601C22.6891 56.8633 22.7875 56.6419 23.0088 56.5681L25.1734 55.8548C25.3702 55.8056 25.5916 55.904 25.6653 56.1008ZM22.8121 57.0355C22.8613 57.2076 23.058 57.306 23.2302 57.2568L25.3948 56.5435C25.567 56.4943 25.6407 56.2975 25.5916 56.1254C25.5424 55.9532 25.3456 55.8548 25.1734 55.904L23.0088 56.6173C22.8367 56.6911 22.7629 56.8633 22.8121 57.0355Z" fill="white"/>
<path d="M27.8545 53.1983C27.9037 53.3951 27.7807 53.5919 27.5839 53.6165L22.5415 54.6003C22.3447 54.6495 22.1725 54.502 22.1234 54.3052C22.0742 54.1084 22.1971 53.9116 22.3939 53.887L27.4363 52.9031C27.6331 52.8785 27.8299 53.0015 27.8545 53.1983Z" fill="#F3F3F3"/>
<path d="M27.9037 53.1983C27.9529 53.4197 27.8053 53.6164 27.6085 53.6656L22.5661 54.6495C22.3693 54.6987 22.1725 54.5511 22.1234 54.3298C22.0742 54.1084 22.2217 53.9116 22.4185 53.8624L27.4609 52.8785C27.6577 52.8293 27.8545 52.9769 27.9037 53.1983ZM22.1725 54.3052C22.1971 54.4774 22.3693 54.6003 22.5415 54.5757L27.5839 53.5919C27.7561 53.5673 27.8791 53.3705 27.8299 53.1983C27.8053 53.0261 27.6331 52.9031 27.4609 52.9277L22.4185 53.9116C22.2463 53.9608 22.1234 54.133 22.1725 54.3052Z" fill="white"/>
<path d="M24.7061 51.3043C24.7307 51.5011 24.6077 51.6733 24.4109 51.6979L22.1479 51.9684C21.9512 51.993 21.779 51.8455 21.7544 51.6487C21.7298 51.4519 21.8528 51.2797 22.0496 51.2551L24.3125 50.9846C24.4847 50.96 24.6815 51.1075 24.7061 51.3043Z" fill="#F3F3F3"/>
<path d="M24.7307 51.3043C24.7552 51.5257 24.6077 51.7225 24.4109 51.7471L22.1479 52.0176C21.9512 52.0422 21.7544 51.8947 21.7298 51.6733C21.7052 51.4519 21.8528 51.2551 22.0496 51.2305L24.3125 50.96C24.5093 50.9354 24.7061 51.0829 24.7307 51.3043ZM21.7544 51.6487C21.779 51.8209 21.9512 51.9684 22.1233 51.9438L24.3863 51.6733C24.5585 51.6487 24.6815 51.4765 24.6569 51.3043C24.6323 51.1321 24.4601 50.9846 24.2879 51.0092L22.025 51.2797C21.8528 51.3043 21.7298 51.4765 21.7544 51.6487Z" fill="white"/>
<path d="M27.4609 48.9184C27.4609 49.1152 27.3134 49.2874 27.1166 49.2874H21.9758C21.779 49.2874 21.6314 49.1152 21.6314 48.9184C21.6314 48.7216 21.779 48.5494 21.9758 48.5494H27.1166C27.3134 48.5494 27.4609 48.7216 27.4609 48.9184Z" fill="#F3F3F3"/>
<path d="M27.4855 48.9184C27.4855 49.1398 27.3134 49.312 27.1166 49.312H21.9758C21.779 49.312 21.6068 49.1398 21.6068 48.9184C21.6068 48.697 21.779 48.5248 21.9758 48.5248H27.1166C27.3134 48.5248 27.4855 48.697 27.4855 48.9184ZM21.656 48.8938C21.656 49.066 21.8036 49.2382 21.9758 49.2382H27.1166C27.2888 49.2382 27.4363 49.0906 27.4363 48.8938C27.4363 48.7216 27.2888 48.5494 27.1166 48.5494H21.9758C21.8036 48.574 21.656 48.7216 21.656 48.8938Z" fill="white"/>
<path d="M24.7307 46.4341C24.7061 46.6309 24.5585 46.7784 24.3617 46.7784L22.0742 46.6063C21.8774 46.5817 21.7298 46.4095 21.7544 46.2127C21.779 46.0159 21.9266 45.8683 22.1234 45.8683L24.4109 46.0405C24.5831 46.0651 24.7307 46.2373 24.7307 46.4341Z" fill="#E2E2E2"/>
<path d="M24.7552 46.4341C24.7306 46.6555 24.5585 46.803 24.3617 46.803L22.0742 46.6309C21.8774 46.6063 21.7052 46.4341 21.7298 46.2127C21.7544 45.9913 21.9266 45.8438 22.1233 45.8438L24.4109 46.0159C24.6077 46.0405 24.7552 46.2373 24.7552 46.4341ZM21.7544 46.2127C21.7298 46.3849 21.8774 46.5571 22.0496 46.5571L24.3371 46.7292C24.5093 46.7292 24.6569 46.6063 24.6815 46.4095C24.7061 46.2373 24.5585 46.0651 24.3863 46.0651L22.0988 45.8929C21.9266 45.8929 21.779 46.0405 21.7544 46.2127Z" fill="white"/>
<path d="M27.9037 44.6385C27.8545 44.8353 27.6823 44.9583 27.4855 44.9337L22.4431 43.9006C22.2463 43.8514 22.1233 43.6792 22.1725 43.4824C22.2217 43.2857 22.3939 43.1627 22.5907 43.1873L27.6331 44.1957C27.8053 44.2449 27.9283 44.4417 27.9037 44.6385Z" fill="#F3F3F3"/>
<path d="M27.9283 44.6385C27.8791 44.8599 27.6823 44.9828 27.4855 44.9582L22.4431 43.9498C22.2463 43.9006 22.0988 43.7038 22.1479 43.4824C22.1971 43.261 22.3939 43.1381 22.5907 43.1626L27.6331 44.1711C27.8299 44.2203 27.9529 44.4171 27.9283 44.6385ZM22.1971 43.4824C22.1725 43.6546 22.2709 43.8268 22.4431 43.876L27.4855 44.8845C27.6577 44.9091 27.8299 44.8107 27.8791 44.6139C27.9037 44.4417 27.8053 44.2695 27.6331 44.2203L22.5907 43.2118C22.3939 43.1872 22.2463 43.3102 22.1971 43.4824Z" fill="white"/>
<path d="M25.6899 41.6868C25.6407 41.8836 25.444 42.0066 25.2472 41.9574L23.0334 41.3425C22.8367 41.2933 22.7383 41.0965 22.7875 40.8997C22.8367 40.7029 23.0334 40.58 23.2302 40.6291L25.444 41.2441C25.6407 41.2933 25.7391 41.49 25.6899 41.6868Z" fill="#F3F3F3"/>
<path d="M25.7145 41.6868C25.6653 41.8836 25.444 42.0312 25.2472 41.9574L23.0334 41.3425C22.8367 41.2933 22.7137 41.0719 22.7629 40.8751C22.8121 40.6783 23.0334 40.5308 23.2302 40.6046L25.444 41.2195C25.6407 41.2687 25.7637 41.4655 25.7145 41.6868ZM22.8367 40.8751C22.7875 41.0473 22.8859 41.2441 23.058 41.2933L25.2718 41.9082C25.444 41.9574 25.6161 41.859 25.6653 41.6622C25.7145 41.4901 25.6161 41.2933 25.444 41.2441L23.2302 40.6292C23.058 40.6046 22.8859 40.7029 22.8367 40.8751Z" fill="white"/>
<path d="M29.1581 40.5062C29.0843 40.7029 28.863 40.7767 28.6908 40.7029L23.9435 38.7352C23.7714 38.6614 23.673 38.44 23.7468 38.2678C23.8206 38.071 24.0419 37.9972 24.2141 38.071L28.9614 40.0388C29.1581 40.1126 29.2319 40.334 29.1581 40.5062Z" fill="#F3F3F3"/>
<path d="M29.1827 40.5308C29.1089 40.7276 28.8876 40.8259 28.6908 40.7521L23.9435 38.7844C23.7468 38.7106 23.673 38.4892 23.7468 38.2678C23.8206 38.0711 24.0419 37.9727 24.2387 38.0465L28.986 40.0142C29.1827 40.1126 29.2565 40.334 29.1827 40.5308ZM23.796 38.2924C23.7222 38.4646 23.796 38.6614 23.9681 38.7352L28.7154 40.703C28.8876 40.7767 29.0598 40.6784 29.1335 40.5062C29.2073 40.334 29.1335 40.1372 28.9614 40.0634L24.2141 38.0957C24.0419 38.0465 23.8452 38.1202 23.796 38.2924Z" fill="white"/>
<path d="M27.5593 37.1856C27.4609 37.3577 27.2642 37.4315 27.092 37.3577L25.0504 36.3247C24.8782 36.2509 24.8044 36.0295 24.9028 35.8327C25.0012 35.6605 25.198 35.5867 25.3702 35.6605L27.4117 36.6936C27.5839 36.792 27.6577 37.0134 27.5593 37.1856Z" fill="#F3F3F3"/>
<path d="M27.5839 37.2101C27.4855 37.4069 27.2642 37.4807 27.0674 37.3823L25.0258 36.3492C24.829 36.2509 24.7552 36.0295 24.8536 35.8327C24.952 35.6359 25.1734 35.5621 25.3702 35.6605L27.4117 36.6936C27.6085 36.7674 27.6823 37.0134 27.5839 37.2101ZM24.9274 35.8573C24.8536 36.0295 24.9028 36.2263 25.075 36.3L27.1166 37.3331C27.2642 37.4069 27.4609 37.3331 27.5593 37.1855C27.6331 37.0134 27.5839 36.8166 27.4117 36.7428L25.3456 35.7097C25.198 35.6359 25.0012 35.6851 24.9274 35.8573Z" fill="white"/>
<path d="M31.1751 36.7182C31.0521 36.8904 30.8553 36.9396 30.6832 36.8166L26.4279 33.9879C26.2557 33.8895 26.2311 33.6681 26.3295 33.496C26.4279 33.3238 26.6492 33.2746 26.8214 33.3976L31.1013 36.2508C31.2489 36.3492 31.2981 36.5706 31.1751 36.7182Z" fill="#F3F3F3"/>
<path d="M31.1997 36.7428C31.0767 36.915 30.8307 36.9642 30.6586 36.8658L26.4033 34.0125C26.2311 33.8895 26.1819 33.6682 26.3049 33.4714C26.4279 33.2992 26.6738 33.25 26.846 33.3484L31.1013 36.2017C31.2981 36.3247 31.3227 36.5706 31.1997 36.7428ZM26.3541 33.496C26.2557 33.6436 26.2803 33.8649 26.4279 33.9633L30.7078 36.8166C30.8553 36.915 31.0521 36.8658 31.1505 36.7182C31.2489 36.5706 31.2243 36.3492 31.0767 36.2509L26.7968 33.3976C26.6492 33.2992 26.4525 33.3484 26.3541 33.496Z" fill="white"/>
<path d="M30.265 33.1516C30.142 33.2992 29.9207 33.3484 29.7731 33.2254L27.9775 31.8234C27.8299 31.7004 27.8053 31.479 27.9283 31.3314C28.0513 31.1838 28.2726 31.1346 28.4202 31.2576L30.2158 32.6597C30.3634 32.7827 30.388 33.004 30.265 33.1516Z" fill="#F3F3F3"/>
<path d="M30.2896 33.1762C30.1666 33.3484 29.9207 33.373 29.7485 33.25L27.9529 31.848C27.7807 31.725 27.7561 31.479 27.8791 31.3068C28.0021 31.1347 28.248 31.1101 28.4202 31.233L30.2158 32.6351C30.388 32.7581 30.4126 33.004 30.2896 33.1762ZM27.9283 31.3314C27.8053 31.479 27.8299 31.6758 27.9775 31.7988L29.7731 33.2008C29.9207 33.2992 30.1174 33.2746 30.2404 33.127C30.3634 32.9794 30.3388 32.7827 30.1912 32.6597L28.3956 31.2576C28.248 31.1592 28.0513 31.1838 27.9283 31.3314Z" fill="white"/>
<path d="M33.93 33.3976C33.7824 33.5452 33.561 33.5452 33.438 33.3976L29.7731 29.7818C29.6255 29.6342 29.6501 29.4128 29.7731 29.2899C29.9207 29.1423 30.142 29.1423 30.265 29.2899L33.9054 32.9056C34.053 33.0286 34.053 33.2746 33.93 33.3976Z" fill="#F3F3F3"/>
<path d="M33.93 33.4222C33.7824 33.5698 33.5364 33.5698 33.3889 33.4222L29.7485 29.8064C29.6009 29.6588 29.6009 29.4129 29.7485 29.2653C29.8961 29.1177 30.142 29.1177 30.2896 29.2653L33.93 32.8811C34.1022 33.0286 34.1022 33.2746 33.93 33.4222ZM29.7977 29.3145C29.6747 29.4375 29.6747 29.6588 29.7977 29.7818L33.438 33.3976C33.561 33.5206 33.7824 33.5206 33.9054 33.3976C34.0284 33.2746 34.0284 33.0532 33.9054 32.9303L30.265 29.2899C30.142 29.1669 29.9452 29.1669 29.7977 29.3145Z" fill="white"/>
<path d="M33.7086 29.7326C33.561 29.8556 33.3397 29.8556 33.2167 29.708L31.7162 27.9862C31.5933 27.8386 31.6179 27.6173 31.7654 27.4943C31.913 27.3713 32.1344 27.3713 32.2574 27.5189L33.7578 29.2407C33.8808 29.3637 33.8562 29.585 33.7086 29.7326Z" fill="#F3F3F3"/>
<path d="M33.7332 29.7326C33.561 29.8802 33.3397 29.8556 33.1921 29.708L31.6916 27.9862C31.5441 27.8386 31.5687 27.5927 31.7408 27.4451C31.913 27.2975 32.1344 27.3221 32.282 27.4697L33.7824 29.1915C33.9054 29.3636 33.9054 29.6096 33.7332 29.7326ZM31.7654 27.4943C31.6179 27.6173 31.6179 27.814 31.7162 27.9616L33.2167 29.6834C33.3397 29.8064 33.5364 29.831 33.684 29.708C33.8316 29.585 33.8316 29.3882 33.7332 29.2407L32.2328 27.5189C32.1098 27.3713 31.913 27.3713 31.7654 27.4943Z" fill="white"/>
<path d="M37.2506 30.6673C37.0784 30.7903 36.8571 30.7411 36.7587 30.5689L33.8808 26.3136C33.7824 26.1414 33.8316 25.92 33.9792 25.8217C34.1514 25.6987 34.3727 25.7479 34.4711 25.92L37.3244 30.1754C37.4474 30.3475 37.3982 30.5689 37.2506 30.6673Z" fill="#F3F3F3"/>
<path d="M37.2506 30.6919C37.0784 30.8149 36.8325 30.7657 36.7095 30.5935L33.8562 26.3382C33.7332 26.166 33.7824 25.92 33.9792 25.7971C34.1514 25.6741 34.3973 25.7233 34.5203 25.8955L37.3736 30.1508C37.4966 30.3475 37.4474 30.5689 37.2506 30.6919ZM34.0038 25.8463C33.8562 25.9446 33.807 26.1414 33.9054 26.289L36.7587 30.5443C36.8571 30.6919 37.0538 30.7165 37.226 30.6181C37.3736 30.5197 37.4228 30.3229 37.3244 30.1754L34.4711 25.9446C34.3727 25.7971 34.1514 25.7479 34.0038 25.8463Z" fill="white"/>
<path d="M37.7671 27.0269C37.595 27.1253 37.3736 27.0761 37.2752 26.9039L36.1437 24.9116C36.0453 24.7394 36.1191 24.518 36.2913 24.4196C36.4635 24.3212 36.6849 24.3704 36.7833 24.5426L37.9147 26.535C37.9885 26.7071 37.9393 26.9285 37.7671 27.0269Z" fill="#F3F3F3"/>
<path d="M37.7671 27.0515C37.5704 27.1499 37.349 27.1007 37.2506 26.9285L36.1191 24.9361C36.0208 24.764 36.0699 24.518 36.2667 24.4196C36.4635 24.3212 36.6849 24.3704 36.7833 24.5426L37.9147 26.535C38.0131 26.7071 37.9639 26.9285 37.7671 27.0515ZM36.2913 24.4442C36.1437 24.5426 36.0699 24.7394 36.1683 24.887L37.2998 26.8793C37.3982 27.0269 37.595 27.0761 37.7425 27.0023C37.8901 26.9039 37.9639 26.7071 37.8655 26.5596L36.7341 24.5672C36.6603 24.4196 36.4389 24.3458 36.2913 24.4442Z" fill="white"/>
<path d="M41.0386 28.6503C40.8418 28.7241 40.645 28.6503 40.5712 28.4782L38.5789 23.7309C38.5051 23.5587 38.6035 23.3373 38.7756 23.2636C38.9724 23.1898 39.1692 23.2636 39.243 23.4357L41.2353 28.183C41.3091 28.3552 41.2108 28.5765 41.0386 28.6503Z" fill="#F3F3F3"/>
<path d="M41.0386 28.6749C40.8418 28.7487 40.6204 28.6749 40.522 28.4781L38.5297 23.7309C38.4559 23.5341 38.5543 23.3127 38.751 23.2389C38.9478 23.1652 39.1692 23.2389 39.2676 23.4357L41.2599 28.183C41.3337 28.3552 41.2354 28.5765 41.0386 28.6749ZM38.8002 23.2881C38.6281 23.3619 38.5543 23.5587 38.6281 23.7063L40.6204 28.4535C40.6942 28.6257 40.891 28.6995 41.0632 28.6257C41.2353 28.5519 41.3091 28.3552 41.2353 28.2076L39.243 23.4603C39.1446 23.2881 38.9724 23.2143 38.8002 23.2881Z" fill="white"/>
<path d="M42.2438 25.1575C42.0471 25.2313 41.8503 25.1329 41.7765 24.9361L41.0632 22.7716C40.9894 22.5994 41.1124 22.378 41.2845 22.3288C41.4567 22.2797 41.6781 22.3534 41.7519 22.5502L42.4652 24.7148C42.539 24.8869 42.4406 25.0837 42.2438 25.1575Z" fill="#F3F3F3"/>
<path d="M42.2684 25.1821C42.0717 25.2559 41.8503 25.1575 41.7765 24.9608L41.0632 22.7962C40.9894 22.5994 41.1124 22.3781 41.3091 22.3043C41.5059 22.2305 41.7273 22.3289 41.8011 22.5256L42.5144 24.6902C42.5636 24.887 42.4652 25.1083 42.2684 25.1821ZM41.3091 22.3535C41.137 22.4027 41.0386 22.5994 41.0878 22.7716L41.8011 24.9362C41.8503 25.1083 42.0471 25.1821 42.2192 25.1329C42.3914 25.0837 42.4898 24.887 42.4406 24.7148L41.7273 22.5502C41.6781 22.3781 41.4813 22.2797 41.3091 22.3535Z" fill="white"/>
<path d="M45.1463 27.3959C44.9495 27.4451 44.7527 27.3221 44.7281 27.1253L43.6951 22.0829C43.6459 21.8861 43.7935 21.7139 43.9902 21.6647C44.187 21.6155 44.3838 21.7385 44.4084 21.9353L45.4415 26.9777C45.4661 27.1499 45.3431 27.3467 45.1463 27.3959Z" fill="#F3F3F3"/>
<path d="M45.1463 27.4205C44.9249 27.4697 44.7281 27.3221 44.679 27.1253L43.6459 22.0829C43.5967 21.8861 43.7443 21.6647 43.941 21.6401C44.1624 21.5909 44.3592 21.7385 44.4084 21.9353L45.4415 26.9777C45.4907 27.1745 45.3677 27.3713 45.1463 27.4205ZM43.9902 21.6893C43.8181 21.7139 43.6951 21.8861 43.7197 22.0829L44.7527 27.1253C44.7773 27.2975 44.9741 27.4205 45.1463 27.3713C45.3185 27.3467 45.4415 27.1745 45.4169 26.9777L44.3838 21.9353C44.3346 21.7631 44.1624 21.6647 43.9902 21.6893Z" fill="white"/>
<path d="M47.0157 24.1982C46.8189 24.2228 46.6467 24.0999 46.5975 23.9031L46.3024 21.6401C46.2778 21.4434 46.4254 21.2712 46.6221 21.2466C46.8189 21.222 46.9911 21.345 47.0403 21.5418L47.3354 23.8047C47.36 24.0015 47.2125 24.1737 47.0157 24.1982Z" fill="#F3F3F3"/>
<path d="M47.0157 24.2229C46.7943 24.2474 46.5975 24.0999 46.5729 23.9031L46.2778 21.6401C46.2532 21.4434 46.4008 21.2466 46.6221 21.222C46.8435 21.1974 47.0403 21.345 47.0649 21.5418L47.36 23.8047C47.3846 24.0015 47.2371 24.1983 47.0157 24.2229ZM46.6467 21.2712C46.4745 21.2958 46.327 21.468 46.3516 21.6401L46.6467 23.9031C46.6713 24.0753 46.8435 24.1983 47.0157 24.1737C47.1879 24.1491 47.3354 23.9769 47.3109 23.8047L47.0157 21.5418C46.9911 21.3696 46.8189 21.2466 46.6467 21.2712Z" fill="white"/>
<path d="M49.6722 78.0906C65.7564 78.0906 78.7952 65.0518 78.7952 48.9676C78.7952 32.8834 65.7564 19.8445 49.6722 19.8445C33.588 19.8445 20.5491 32.8834 20.5491 48.9676C20.5491 65.0518 33.588 78.0906 49.6722 78.0906Z" fill="url(#paint2_linear)" fill-opacity="0.2"/>
<g filter="url(#filter1_d)">
<path d="M69.8419 30.4951L46.3516 45.5486H46.327V45.5732L46.3024 45.5978L31.6425 69.7768L53.1896 52.4358L53.2142 52.4112V52.3866L69.8419 30.4951Z" fill="black" fill-opacity="0.05"/>
</g>
<path d="M69.3991 29.0931L46.1794 45.5978L53.0666 52.4358L69.3991 29.0931Z" fill="#CD151E"/>
<path d="M46.204 45.5486L49.6722 48.9676L69.3991 29.0931L46.204 45.5486Z" fill="#FA5153"/>
<path d="M46.204 45.5486L53.0912 52.3866L29.8715 68.8913L46.204 45.5486Z" fill="#ACACAC"/>
<path d="M29.8715 68.8913L49.6722 48.9676L46.204 45.5486L29.8715 68.8913Z" fill="#EEEEEE"/>
</g>
<defs>
<filter id="filter0_d" x="14.0156" y="15.5078" width="70.9688" height="70.9688" filterUnits="userSpaceOnUse" color-interpolation-filters="sRGB">
<feFlood flood-opacity="0" result="BackgroundImageFix"/>
<feColorMatrix in="SourceAlpha" type="matrix" values="0 0 0 0 0 0 0 0 0 0 0 0 0 0 0 0 0 0 127 0"/>
<feOffset dy="2"/>
<feGaussianBlur stdDeviation="2"/>
<feColorMatrix type="matrix" values="0 0 0 0 0 0 0 0 0 0 0 0 0 0 0 0 0 0 0.266007 0"/>
<feBlend mode="normal" in2="BackgroundImageFix" result="effect1_dropShadow"/>
<feBlend mode="normal" in="SourceGraphic" in2="effect1_dropShadow" result="shape"/>
</filter>
<filter id="filter1_d" x="27.6425" y="27.4951" width="46.1994" height="47.2817" filterUnits="userSpaceOnUse" color-interpolation-filters="sRGB">
<feFlood flood-opacity="0" result="BackgroundImageFix"/>
<feColorMatrix in="SourceAlpha" type="matrix" values="0 0 0 0 0 0 0 0 0 0 0 0 0 0 0 0 0 0 127 0"/>
<feOffset dy="1"/>
<feGaussianBlur stdDeviation="2"/>
<feColorMatrix type="matrix" values="0 0 0 0 0 0 0 0 0 0 0 0 0 0 0 0 0 0 1 0"/>
<feBlend mode="normal" in2="BackgroundImageFix" result="effect1_dropShadow"/>
<feBlend mode="normal" in="SourceGraphic" in2="effect1_dropShadow" result="shape"/>
</filter>
<linearGradient id="paint0_linear" x1="49.5" y1="80.4766" x2="49.5" y2="17.5078" gradientUnits="userSpaceOnUse">
<stop offset="0.25" stop-color="#DBDBDA"/>
<stop offset="1" stop-color="white"/>
</linearGradient>
<radialGradient id="paint1_radial" cx="0" cy="0" r="1" gradientUnits="userSpaceOnUse" gradientTransform="translate(53.592 42.5949) scale(35.5485)">
<stop stop-color="#2ABCE1"/>
<stop offset="0.113629" stop-color="#2ABBE1"/>
<stop offset="1" stop-color="#3375F8"/>
</radialGradient>
<linearGradient id="paint2_linear" x1="49.119" y1="40.6404" x2="35.5259" y2="65.0271" gradientUnits="userSpaceOnUse">
<stop stop-opacity="0"/>
<stop offset="1"/>
</linearGradient>
<clipPath id="clip0">
<rect width="65" height="65" fill="white" transform="translate(17 17)"/>
</clipPath>
</defs>
</svg>
